<?xml version="1.0" encoding="UTF-8" standalone="no"?>
<!-- Created with Inkscape (http://www.inkscape.org/) -->

<svg
   xmlns:dc="http://purl.org/dc/elements/1.1/"
   xmlns:cc="http://creativecommons.org/ns#"
   xmlns:rdf="http://www.w3.org/1999/02/22-rdf-syntax-ns#"
   xmlns:svg="http://www.w3.org/2000/svg"
   xmlns="http://www.w3.org/2000/svg"
   xmlns:sodipodi="http://sodipodi.sourceforge.net/DTD/sodipodi-0.dtd"
   xmlns:inkscape="http://www.inkscape.org/namespaces/inkscape"
   width="60.380638mm"
   height="61.84016mm"
   viewBox="0 0 213.94714 219.11868"
   id="svg4815"
   version="1.1"
   inkscape:version="0.91 r13725"
   sodipodi:docname="bug.svg">
  <defs
     id="defs4817" />
  <sodipodi:namedview
     id="base"
     pagecolor="#ffffff"
     bordercolor="#666666"
     borderopacity="1.0"
     inkscape:pageopacity="0.0"
     inkscape:pageshadow="2"
     inkscape:zoom="1.979899"
     inkscape:cx="18.738409"
     inkscape:cy="117.87492"
     inkscape:document-units="px"
     inkscape:current-layer="layer1"
     showgrid="false"
     fit-margin-top="0"
     fit-margin-left="0"
     fit-margin-right="0"
     fit-margin-bottom="0"
     inkscape:window-width="2560"
     inkscape:window-height="1396"
     inkscape:window-x="-9"
     inkscape:window-y="22"
     inkscape:window-maximized="0" />
  <metadata
     id="metadata4820">
    <rdf:RDF>
      <cc:Work
         rdf:about="">
        <dc:format>image/svg+xml</dc:format>
        <dc:type
           rdf:resource="http://purl.org/dc/dcmitype/StillImage" />
        <dc:title></dc:title>
      </cc:Work>
    </rdf:RDF>
  </metadata>
  <g
     inkscape:label="Layer 1"
     inkscape:groupmode="layer"
     id="layer1"
     transform="translate(-42.538312,-28.255074)">
    <path
       d="m 148.37359,245.94617 c -3.2533,-2.85541 -4.27663,-11.04518 -2.67223,-21.38585 l 1.35243,-8.71657 -9.41745,-9.44805 -9.41744,-9.44806 -1.9131,3.69953 c -3.88785,11.35855 0.65176,13.53586 -14.4308,14.23463 -7.35192,0.32862 -13.75,-1.91286 -13.75,-4.81713 0,-0.96651 4.46625,-8.339 9.92501,-16.3833 l 9.92501,-14.626 -2.42501,-3.40561 c -2.44284,-3.63661 -4.34184,-10.78715 -9.1645,-11.14469 -2.9563,5.90944 -11.176746,10.54241 -15.952235,15.18793 -5.025707,4.93458 -26.668622,-0.69825 -28.024613,-2.36453 -1.867575,-3.11807 0.897429,-7.66183 3.2941,-10.39425 10.125586,-8.21746 21.76826,-11.06522 32.118053,-15.76802 l 4.070815,-1.70163 -1.88332,-4.5074 c -3.650786,-8.73757 -1.662044,-13.03988 6.86669,-14.85492 2.40625,-0.51209 7.24141,-2.5482 10.7448,-4.52469 8.98185,-5.06726 13.58185,-4.39142 19.08627,2.80418 2.31334,3.02408 4.98522,5.94816 5.9375,6.49795 9.63977,9.43182 23.36825,38.66759 37.66893,37.37031 6.74748,-3.08986 -17.57225,-35.21429 -22.21126,-40.95981 -9.34805,-11.11514 -11.95263,-12.60785 -13.1061,-21.66109 7.35032,-11.72288 9.48634,-24.818361 16.74198,-26.992248 3.59978,-1.078542 7.49977,1.123356 8.37972,1.461025 1.04766,0.402026 2.37313,-3.831219 3.49943,-5.782454 3.78031,-6.549146 4.35398,-16.147423 10.9315,-19.878157 1.3446,-0.762652 3.15284,-0.273418 4.63447,0.167437 1.55675,0.463205 3.11649,1.281582 4.1735,2.514764 1.74226,2.032629 3.07314,4.755136 3.04418,7.432111 -0.0237,2.189816 -2.12591,3.891096 -2.62115,6.024308 -1.79653,7.738395 -10.79439,17.072179 -1.0922,23.807556 3.90534,2.686938 6.33852,3.629158 7.41807,2.872548 0.88357,-0.61925 6.75353,-5.799201 10.3632,-8.393691 4.84171,-3.480029 9.75378,-6.950431 15.1018,-9.586991 2.01978,-0.995746 4.24688,-3.136811 6.34511,-2.319217 1.25437,0.488776 1.62316,2.26132 1.85512,3.587417 0.99734,5.701752 0.68687,12.238408 -2.26688,17.216362 -1.15245,1.94223 -3.60893,2.71863 -5.47194,3.9952 -0.94443,0.64714 -1.92861,1.23427 -2.8901,1.85579 -2.39864,1.55051 -4.82604,3.05839 -7.18178,4.67333 -2.13805,1.46571 -5.85397,1.99781 -6.30648,4.55022 -0.4401,2.48238 1.42952,3.6683 4.23832,6.26417 2.69678,2.49232 5.53904,5.93774 6.31615,7.65649 0.77713,1.71875 2.35116,5.257 3.49789,7.86278 l 3.51353,8.3092 12.12381,-4.20833 c 7.04943,-2.44695 14.27913,-0.7948 15.1674,-0.98777 1.12325,-0.24404 1.70308,1.55221 1.90427,5.89912 1.28913,16.45124 -15.17971,19.03283 -25.16406,24.34795 -1.7085,15.21448 -1.9869,28.90606 -15.34952,40.58934 -11.23377,7.83283 -23.90093,8.88204 -36.52548,10.66813 -4.71497,0.73387 -12.35455,-1.62017 -13.29049,2.10892 -0.97314,6.67896 -7.20347,18.51029 -11.6686,20.8279 -3.30572,1.64911 -3.93251,1.62565 -6.04232,-0.22614 z M 88.334882,117.86695 C 83.184377,105.94238 66.720658,109.90954 54.780607,111.7883 38.638299,115.0894 42.13748,101.83747 44.917063,93.158411 52.572797,79.021086 76.940947,109.95837 82.289235,86.437366 86.08657,77.887027 97.85329,65.321718 106.97435,64.177117 c 9.65985,-2.346362 5.08093,-13.626104 2.20174,-19.493081 -2.29786,-4.644375 -2.33109,-5.245104 -0.48738,-8.810432 1.98875,-3.84583 7.59011,-7.61853 11.31129,-7.61853 5.44121,0 14.35504,8.332963 14.37032,13.433899 -6.75781,11.553013 -13.71709,22.068427 2.81718,27.437083 9.36333,4.055629 10.62935,15.229758 7.05736,22.561047 -9.17961,19.266637 -40.75784,39.832697 -55.909978,26.179807 z"
       id="path5428"
       inkscape:connector-curvature="0"
       sodipodi:nodetypes="sscccccssccccccccssssccccssaaaaaacsaaaaaaaaassscscccccccsccccccssccccc" />
  </g>
</svg>
