<?xml version="1.0" encoding="UTF-8" standalone="no"?>
<!-- Created with Inkscape (http://www.inkscape.org/) -->

<svg
   xmlns:dc="http://purl.org/dc/elements/1.1/"
   xmlns:cc="http://creativecommons.org/ns#"
   xmlns:rdf="http://www.w3.org/1999/02/22-rdf-syntax-ns#"
   xmlns:svg="http://www.w3.org/2000/svg"
   xmlns="http://www.w3.org/2000/svg"
   xmlns:sodipodi="http://sodipodi.sourceforge.net/DTD/sodipodi-0.dtd"
   xmlns:inkscape="http://www.inkscape.org/namespaces/inkscape"
   width="150.69473mm"
   height="124.61119mm"
   viewBox="0 0 533.95771 441.53571"
   id="svg12498"
   version="1.1"
   inkscape:version="0.91 r13725"
   sodipodi:docname="export.svg">
  <defs
     id="defs12500" />
  <sodipodi:namedview
     id="base"
     pagecolor="#ffffff"
     bordercolor="#666666"
     borderopacity="1.0"
     inkscape:pageopacity="0.0"
     inkscape:pageshadow="2"
     inkscape:zoom="0.98994949"
     inkscape:cx="328.34937"
     inkscape:cy="316.33825"
     inkscape:document-units="px"
     inkscape:current-layer="layer1"
     showgrid="false"
     fit-margin-top="0"
     fit-margin-left="0"
     fit-margin-right="0"
     fit-margin-bottom="0"
     inkscape:window-width="2560"
     inkscape:window-height="1159"
     inkscape:window-x="14"
     inkscape:window-y="5"
     inkscape:window-maximized="0" />
  <metadata
     id="metadata12503">
    <rdf:RDF>
      <cc:Work
         rdf:about="">
        <dc:format>image/svg+xml</dc:format>
        <dc:type
           rdf:resource="http://purl.org/dc/dcmitype/StillImage" />
        <dc:title></dc:title>
      </cc:Work>
    </rdf:RDF>
  </metadata>
  <g
     inkscape:label="Layer 1"
     inkscape:groupmode="layer"
     id="layer1"
     transform="translate(-34.058832,-35.141431)">
    <path
       d="m 463.30883,475.95408 c -17.67035,-3.33851 -41.13438,-12.8986 -39.6364,-33.04339 3.55227,-22.34672 17.65771,-32.75338 35.8864,-34.06694 9.45181,-0.62467 11.77568,-0.31232 21.04613,2.82887 11.06622,3.74966 17.13286,8.20958 20.69272,15.2124 6.74905,27.62569 -6.32806,54.58321 -37.9888,49.06906 z m 6.54728,-18.16076 c 6.62173,-0.76882 9.17208,-1.5658 17.20272,-5.37579 4.86569,-2.30845 5.70895,-4.86594 4.42578,-13.42275 -3.54392,-12.6114 -17.27157,-19.34409 -27.60169,-19.72153 -6.82993,-0.1966 -9.14001,1.08903 -20.12158,11.19828 -5.15965,4.7498 -5.62007,5.68654 -6.21751,12.64967 -0.57051,6.6494 -0.29832,7.92329 2.35111,11.00344 2.54304,2.95646 4.30435,3.61524 11.64262,4.35461 4.75545,0.47915 9.34255,0.69267 10.19355,0.47448 0.851,-0.21819 4.50725,-0.74038 8.125,-1.16041 z M 242.48403,400.81063 c 13.1375,0 22.37128,6.25154 30.09014,20.37187 5.21212,9.5347 6.01989,23.21014 1.79851,30.44879 -4.89879,8.40025 -6.8533,10.64044 -9.77431,11.20298 -1.53704,0.296 -3.44034,1.04577 -4.22958,1.66615 -61.70931,21.29698 -79.6598,-61.83217 -17.88476,-63.68979 z m 18.92824,21.19361 c -0.2978,-1.6018 -2.02518,-4.20565 -3.83862,-5.78632 -2.79318,-2.43467 -4.52,-2.83439 -11.29705,-2.61499 -9.95993,0.32244 -19.82183,3.56785 -23.76546,7.8209 -1.6537,1.78344 -2.96443,3.39459 -2.91274,3.58032 0.0517,0.18575 -0.71741,2.30648 -1.70911,4.71273 -0.99172,2.40625 -2.186,7.2296 -2.65398,10.71854 28.17722,26.3003 52.19866,15.09211 46.17696,-18.43118 z m 14.22817,-42.7485 c -25.11521,1.72498 -39.78176,-3.64674 -46.65336,-25.78886 -3.7746,-12.12091 -9.3102,-36.51431 -11.2047,-49.375 -1.99675,-13.55486 -3.10275,-15.48448 -11.26216,-19.64878 -15.83778,-8.38166 -9.12751,-21.42707 -17.02813,-33.47622 -1.16572,-1.71875 -4.2268,-7.34375 -6.80237,-12.5 -2.57559,-5.15625 -6.96143,-13.2946 -9.74631,-18.08523 -2.78488,-4.79062 -9.47639,-17.72812 -14.87002,-28.75 -5.39362,-11.02187 -10.859,-22.00852 -12.14527,-24.41477 -1.28628,-2.40625 -5.07369,-9.71875 -8.41649,-16.25 -3.34279,-6.53125 -6.73874,-12.30121 -7.54654,-12.82214 -0.80781,-0.52094 -2.15526,-3.05219 -2.99433,-5.625 -0.83907,-2.57282 -3.69376,-9.62497 -6.34376,-15.67143 C 113.35655,101.50249 117.49215,87.107134 109.05212,75.432963 98.801772,63.22202 83.91662,63.874556 68.278899,60.961201 64.978862,60.335361 57.12564,59.434298 50.827291,58.958835 37.240564,57.933173 34.058832,56.105273 34.058832,49.325381 c 0,-10.474761 7.485835,-15.232141 22.015202,-13.99105 5.01039,0.427987 12.484798,1.537515 16.609798,2.465623 4.125,0.928106 12,2.627796 17.5,3.777087 21.997638,5.021897 24.599138,8.945665 33.530618,22.504013 2.28558,3.443452 5.51996,8.36139 7.18749,10.92875 1.66754,2.56736 3.59439,4.882024 4.28189,5.143697 0.6875,0.261674 5.46875,-0.228655 10.625,-1.089618 11.13381,-1.859068 33.85364,-3.044768 73.125,-3.816238 15.8125,-0.31063 41.6875,-1.390896 57.5,-2.400592 62.63444,-3.999475 125.91654,-5.013384 164.375,-2.633624 9.96875,0.616854 38.375,1.207939 63.125,1.313521 42.4026,0.180889 45.32468,0.33923 50.625,2.743245 3.09375,1.4032 7.50249,4.138028 9.79719,6.077393 4.53124,3.82957 4.3526,2.188717 2.17684,19.994292 -1.00748,14.37753 -8.38348,23.29262 -12.60482,36.875 -0.50885,1.71875 -1.34433,3.6875 -1.85663,4.375 -0.5123,0.6875 -3.63613,9.125 -6.94183,18.75 -3.3057,9.625 -8.37466,24.25 -11.26435,32.5 -6.97109,19.90231 -9.71185,28.02079 -13.50385,40 -4.15697,13.13217 -5.33732,16.61174 -10.17662,30 -2.23653,6.1875 -4.68909,13.53369 -5.45015,16.32486 -0.76105,2.79116 -2.84407,6.44741 -4.6289,8.125 -3.16415,2.97399 -3.74985,3.05014 -23.45853,3.05014 -20.25344,0 -36.68285,-0.90535 -57.71335,-3.18034 -26.20759,-2.83501 -45.77305,-3.42054 -103.125,-3.08616 -62.83935,0.36635 -81.25762,1.18602 -81.23961,3.61541 0.006,0.7706 0.83847,7.58859 1.85059,15.15109 1.01212,7.5625 1.8512,17.41495 1.86462,21.89434 1.96526,27.4799 32.66916,30.19677 50.0244,31.32808 9.96875,0.63788 21.5,1.40902 25.625,1.71365 53.03443,8.84233 117.12475,-18.09774 167.00276,1.39289 2.29898,1.42085 1.13698,10.57236 -1.96667,15.48888 -2.66365,4.2195 -3.9006,5.01487 -8.98459,5.77726 -3.24261,0.48626 -12.39947,0.4456 -20.34857,-0.0904 -22.12345,-1.49167 -27.9834,-1.84556 -30.70293,-1.85418 -49.21163,0.70676 -97.35594,1.68396 -143.29339,0.76334 z M 490.16609,256.90438 c 3.0682,-7.65715 5.15264,-14.19805 7.4557,-23.39568 1.1132,-4.44575 2.86815,-9.77531 3.89988,-11.84347 13.50913,-26.83768 -22.98,-16.62027 -42.3353,-18.62705 -36.69763,0.70173 -39.58058,-4.49834 -49.22315,17.30373 -4.21026,8.09364 -12.1647,33.11967 -10.90983,34.32421 0.62174,0.59679 8.72419,1.37499 18.00544,1.72934 9.28125,0.35435 23.0625,1.27727 30.625,2.05095 45.14656,4.61867 39.93794,4.80774 42.48226,-1.542 z m -238.10726,-1.38261 c 21.58154,0.6795 31.5798,0.0807 32.25053,-1.93145 0.76101,-2.28304 -2.28415,-12.34523 -4.22307,-13.95439 -7.29747,-8.6057 -4.60269,-24.00263 -10.72668,-32.5189 -0.62434,-0.39866 -4.35054,-0.30968 -8.28047,0.19774 -3.92992,0.50741 -14.45781,1.26886 -23.39531,1.6921 -25.07105,1.18723 -42.98369,2.65202 -43.92346,3.5918 -0.46908,0.46908 0.0811,1.885 1.22279,3.14647 1.14162,1.26148 2.07567,2.92956 2.07567,3.70688 0,0.7773 3.95076,8.32676 8.77946,16.77657 4.8287,8.44981 9.11149,16.64113 9.51732,18.20291 0.73408,2.82509 0.81555,2.83469 15.90803,1.87639 8.3436,-0.52977 17.70144,-0.88352 20.79519,-0.78612 z m 125.7439,-2.99239 c 0.366,-1.20313 1.4436,-3.875 2.39469,-5.9375 0.95107,-2.0625 2.25481,-5.71875 2.89717,-8.125 0.64238,-2.40625 2.64932,-8.26131 4.45988,-13.01124 3.55807,-9.33442 6.70058,-20.92349 5.75717,-21.86689 -80.62781,-1.52122 -45.41956,-0.73219 -80.62781,-1.52122 -4.8125,0.7424 -11.42187,1.36097 -14.6875,1.37459 -6.73642,0.0281 -7.17027,0.95993 -3.9586,8.50241 1.08839,2.55604 3.39775,8.58485 5.1319,13.39735 1.73416,4.8125 3.84639,10.4375 4.69384,12.5 0.84744,2.0625 2.33495,6.28125 3.30559,9.375 l 1.76477,5.625 17.5,0.67896 c 9.625,0.37343 24.97078,0.7953 34.10173,0.9375 14.85731,0.23138 16.67166,0.0288 17.26717,-1.92896 z m -153.8689,-52.99749 c 17.1875,-2.09986 33.66123,-3.96912 36.60828,-4.15392 5.33702,-1.45591 2.21759,-4.06069 0.84403,-11.59365 -0.43331,-2.58084 -1.31938,-6.43817 -1.96907,-8.57183 -0.64969,-2.13366 -1.44608,-5.08679 -1.76975,-6.5625 -2.75453,-12.55872 -3.43956,-13.57727 -9.56709,-14.22471 -18.13681,-0.85608 -36.77066,2.97612 -50.78394,3.50528 -8.72436,0.31471 -17.26871,0.91922 -18.98746,1.34339 -1.71875,0.42416 -5.90512,0.6499 -9.30306,0.50165 -9.3095,-0.27817 19.29803,42.28585 21.84851,42.09291 1.14515,-0.29641 15.89205,-0.2367 33.07955,-2.33656 z m 133.64915,-5.44602 c 20.56953,-0.34409 37.58423,-0.8107 37.81043,-1.0369 4.5774,-11.33385 8.26165,-27.36049 12.08976,-38.12454 -6.93169,-6.62962 -113.56222,-1.78892 -131.21879,-1.91566 -0.35594,0.57592 0.76424,4.46644 2.48929,10.8062 1.72504,6.33977 4.20741,15.7456 5.51637,20.90185 2.68025,12.52884 2.2022,9.36467 14.77187,10.09515 6.81556,0.39609 14.36067,0.5355 16.76692,0.3098 2.40625,-0.2257 21.20461,-0.69187 41.77415,-1.03596 z m 119.25434,-0.66309 c 11.22192,-0.091 23.08077,0.20275 26.35302,0.6528 7.9568,1.61738 6.15607,0.0553 8.15302,-7.32204 -1.51728,-10.35203 15.34593,-34.53688 10.94871,-39.71676 -0.47203,-0.099 -5.63949,-0.35888 -11.48324,-0.57739 -81.0607,1.55693 -81.31016,1.83932 -84.44396,21.45593 -0.15588,1.41538 -1.14973,5.35288 -2.20856,8.75 -3.82217,12.26291 -4.41268,16.65416 -2.29395,17.0587 1.05966,0.20232 9.27173,0.25453 18.24906,0.116 8.97732,-0.1385 25.50399,-0.32628 36.7259,-0.41728 z M 159.84246,152.94911 c 33.91303,-2.00708 62.77839,-3.14151 88.58291,-4.48223 6.06386,-6.19703 -8.79361,-32.44904 -11.379,-40.41292 -3.9735,-5.7694 -4.21875,-6.10658 -26.743,-9.587052 -60.98265,-1.394419 -61.17185,-0.720391 -58.76844,35.668362 1.39486,4.51159 4.32194,8.5505 5.96746,12.14414 7.50747,12.21167 2.34007,6.6697 2.34007,6.6697 z m 248.2519,-11.17855 c 7.44426,-0.56491 4.60166,0.40211 4.73498,-2.26628 2.15103,-15.63745 11.69424,-30.39843 1.73839,-41.465212 -16.92642,-9.074725 -48.71633,-4.213787 -69.31271,-4.006623 -67.5366,0.679301 -84.24655,1.314151 -86.2595,3.277205 -0.75029,0.73169 -0.67291,2.656044 0.2099,5.22054 0.76902,2.23393 1.7902,6.03044 2.26927,8.43669 0.47908,2.40625 2.19194,7.1875 3.80634,10.625 1.61441,3.4375 5.41398,15.17703 6.9002,20.22337 22.34549,4.57578 108.19602,1.8035 135.91313,-0.0447 z m 52.08947,-0.96603 c 7.17989,-1.0428 19.24874,-1.20903 50.6112,-0.69708 13.88607,-0.53585 13.45337,5.08797 15.76406,-7.26557 0.77157,-4.125 3.68868,-14.25 6.48248,-22.5 4.63416,-13.68454 4.88745,-15.071717 2.88827,-15.817754 -7.21167,-2.691185 -81.55387,-3.499005 -84.66145,-0.919951 -2.62657,2.17987 -11.57492,21.681085 -13.4783,29.373375 -1.00221,4.05038 -2.68352,10.06503 -3.73622,13.36588 -1.57012,8.31274 0.83167,5.75345 8.35797,5.77597 5.65093,0.0169 13.64699,-0.71577 17.77199,-1.31487 z"
       id="path13111"
       inkscape:connector-curvature="0"
       sodipodi:nodetypes="cccscccssccsssssscssscccssscsccccsccssssssscccssssccsssssssssccsssssssssscsccccssscccscccsssccssccssscssssscsssccssssscssccccssccsccccccccsccsccccccccssscccccccccccccssssccsccssssccs" />
  </g>
</svg>
