<?xml version="1.0" encoding="UTF-8" standalone="no"?>
<!-- Created with Inkscape (http://www.inkscape.org/) -->

<svg
   xmlns:dc="http://purl.org/dc/elements/1.1/"
   xmlns:cc="http://creativecommons.org/ns#"
   xmlns:rdf="http://www.w3.org/1999/02/22-rdf-syntax-ns#"
   xmlns:svg="http://www.w3.org/2000/svg"
   xmlns="http://www.w3.org/2000/svg"
   xmlns:sodipodi="http://sodipodi.sourceforge.net/DTD/sodipodi-0.dtd"
   xmlns:inkscape="http://www.inkscape.org/namespaces/inkscape"
   width="104.57096mm"
   height="91.949043mm"
   viewBox="0 0 370.52703 325.8037"
   id="svg13696"
   version="1.1"
   inkscape:version="0.91 r13725"
   sodipodi:docname="closed_file.svg">
  <defs
     id="defs13698" />
  <sodipodi:namedview
     id="base"
     pagecolor="#ffffff"
     bordercolor="#666666"
     borderopacity="1.0"
     inkscape:pageopacity="0.0"
     inkscape:pageshadow="2"
     inkscape:zoom="1.979899"
     inkscape:cx="255.0774"
     inkscape:cy="138.88393"
     inkscape:document-units="px"
     inkscape:current-layer="layer1"
     showgrid="false"
     fit-margin-top="0"
     fit-margin-left="0"
     fit-margin-right="0"
     fit-margin-bottom="0"
     inkscape:window-width="2560"
     inkscape:window-height="1159"
     inkscape:window-x="15"
     inkscape:window-y="199"
     inkscape:window-maximized="0" />
  <metadata
     id="metadata13701">
    <rdf:RDF>
      <cc:Work
         rdf:about="">
        <dc:format>image/svg+xml</dc:format>
        <dc:type
           rdf:resource="http://purl.org/dc/dcmitype/StillImage" />
        <dc:title></dc:title>
      </cc:Work>
    </rdf:RDF>
  </metadata>
  <g
     inkscape:label="Layer 1"
     inkscape:groupmode="layer"
     id="layer1"
     transform="translate(-51.817795,-42.39668)">
    <path
       style=""
       d="m 155.22619,367.37125 c -0.0107,-0.42457 -2.8966,-2.17821 -6.41313,-3.89696 -9.92392,-4.85044 -80.363708,-76.19265 -89.146067,-90.28814 -9.452255,-10.63213 -6.639737,-19.45128 -5.75877,-30.33686 0.686712,-8.25 1.57062,-22.03125 1.964243,-30.625 0.746041,-16.28796 1.739871,-26.09855 2.834365,-27.97942 0.910271,-1.5643 1.18493,-6.50893 2.122436,-38.2098 0.456476,-15.43532 1.11471,-28.52496 1.462743,-29.08809 0.348032,-0.56313 -0.834204,-2.76728 -2.62719,-4.89813 -5.531754,-6.57411 -9.601447,-17.541837 -7.085963,-19.096492 0.550741,-0.340378 1.107964,-7.252813 1.238273,-15.360968 0.230097,-14.317359 1.193798,-25.3671 2.212385,-25.3671 9.748517,-1.270659 32.48705,-1.270941 32.48705,-1.270941 0.768022,-0.768022 14.171495,-1.478081 33.872355,-1.794412 17.93078,-0.287909 34.48698,-0.828867 36.79155,-1.202128 7.88968,-1.27785 21.71865,-1.896918 57.94015,-2.593744 49.33833,-0.949169 72.25258,-1.719724 77.87483,-2.618759 8.79471,-1.406331 14.62424,1.28064 24.4183,11.254978 4.92627,5.016964 12.05062,11.129849 15.83187,13.58419 3.78125,2.454341 9.125,6.529122 11.875,9.05507 2.75,2.525947 6.96875,6.061616 9.375,7.85704 4.32994,3.230781 9.75785,7.81727 21.875,18.483976 9.91431,9.87305 23.12827,17.10637 32.48928,26.43223 1.53857,1.54688 3.37584,2.8125 4.08282,2.8125 5.4679,7.91813 1.38113,15.99338 4.79269,26.23575 9.50739,22.87717 -9.21546,20.94423 -20.11479,21.19534 -2.75,0.059 -4.36685,0.52045 -3.59298,1.02555 2.8595,1.86641 3.57717,18.44372 2.44787,56.54336 -1.5824,53.38638 -1.79531,84.52889 -0.63237,92.5 0.65195,4.46875 1.35305,10.09375 1.55798,12.5 0.001,20.63733 -14.70171,21.27314 -27.29636,21.71414 -9.61627,0.31094 -23.95289,0.94744 -31.85914,1.41442 -23.225,1.37183 -54.20187,1.36987 -56.12846,-0.004 -3.26329,-2.32632 -65.5571,-0.9742 -79.49654,1.72552 -6.76086,1.30941 -49.3625,1.56508 -49.39443,0.29645 z m 89.39443,-24.51385 c 21.3125,-0.38541 44.1625,-1.30251 50.77778,-2.03798 8.41035,-0.93505 14.61346,-0.94575 20.625,-0.0356 9.01147,1.36438 17.52275,1.13809 42.31691,-1.12505 4.9501,-1.40273 23.63472,1.82024 24.71028,-0.24705 5.34582,-46.27201 0.15594,-96.90444 1.86016,-144.43515 l 0.70272,-15.25225 -11.12142,-0.27315 c -6.11679,-0.15024 -14.21518,-0.39835 -17.99643,-0.55137 -12.56592,-0.5085 -27.93173,-0.47607 -45.625,0.0962 -30.97607,1.49716 -59.39445,2.62728 -88.24918,3.7049 -5.91205,0.21616 -11.37882,0.78215 -12.14838,1.25776 -1.36034,0.84074 -21.36447,2.20305 -30.28535,2.06247 -2.4381,-0.0384 -5.49519,0.70693 -6.79355,1.6563 -2.26212,1.6541 -2.27275,1.95629 -0.25459,7.24077 0.98207,9.81282 1.9365,30.10988 0.20104,46.75906 -0.39211,3.48042 -0.22844,8.54292 0.36375,11.25 0.60209,2.7524 0.60223,6.85044 3.1e-4,9.29696 -0.59201,2.40625 -1.21487,18.05279 -1.38415,34.77009 -0.26622,26.29171 -0.0474,30.54755 1.62117,31.52449 0.40149,9.70424 0.22145,16.05828 16.14888,15.68421 8.67903,-0.35468 33.21755,-0.96021 54.53005,-1.34563 z m -44.94301,-34.69561 c -0.42185,-4.29687 -0.8885,-27.03115 -1.03699,-50.5206 l -0.27,-42.7081 3.75,-3.22787 c 2.731,-2.35075 5.2785,-3.27024 9.375,-3.38378 9.07763,-0.25161 41.59033,-0.9291 82.49142,-1.71892 40.24887,-0.82183 50.4821,-12.55075 53.22877,21.46492 3.52267,26.30432 1.08227,57.91602 0.88677,79.07136 1.4072,15.27042 -78.14679,8.66436 -104.73204,10.3067 -14.24986,-1.47547 -41.9961,7.0846 -43.69293,-9.28371 z m 134.94301,-74.0625 c -4.98553,-14.67732 -15.48668,-14.66654 -15.48668,-14.66654 -10.56205,2.90475 -100.98957,3.31966 -104.45103,4.69245 -9.70217,6.47884 -7.03024,49.66932 -4.87731,71.53659 l 0.78825,6.5625 5.76339,0.0926 c 3.16986,0.051 8.29463,0.47283 11.38838,0.9375 3.09375,0.46467 8.4375,0.77756 11.875,0.69531 3.4375,-0.0822 22.28125,-0.58701 41.875,-1.12173 58.44894,-2.10277 52.28552,-3.8358 53.125,-68.72868 z M 155.91176,339.53697 c 1.46233,-6.65792 3.92983,-37.03272 4.45271,-54.81268 0.5409,-18.39209 0.44465,-44.42021 -0.27963,-75.625 l -0.46422,-20 -6.99935,-0.18067 c -6.48662,-0.16745 -7.40227,-0.58003 -12.5,-5.63228 -3.02535,-2.99839 -10.00065,-9.2329 -15.50065,-13.8545 -15.84743,-12.92536 -27.899751,-25.47532 -42.81673,-38.08071 l -6.229185,-5.24816 -0.87166,7.12316 c -0.479413,3.91774 -1.138013,13.59191 -1.463557,21.49816 -0.325542,7.90625 -0.833952,19.15625 -1.129797,25 -0.295846,5.84375 -0.701858,13.90926 -0.902249,17.92336 -0.200391,4.01409 0.01716,7.53414 0.483445,7.82232 0.466286,0.28818 0.361859,2.34767 -0.232062,4.57665 -1.388594,5.21136 -3.965648,26.79895 -4.390848,36.78146 -0.267497,6.28011 0.116613,8.13225 2.049221,9.88124 1.308134,1.18383 2.378425,2.6229 2.378425,3.19788 0,1.81152 7.815389,11.36068 16.730554,20.44209 12.388663,12.61968 25.426013,27.59685 26.314923,30.23031 0.42137,1.24833 3.14289,4.09775 6.04782,6.33207 2.90494,2.2343 8.63294,7.15617 12.72889,10.9375 4.09595,3.78131 7.7829,6.87512 8.19323,6.87512 0.41032,0 2.89541,1.96875 5.52243,4.375 5.89643,5.40091 7.76793,5.49318 8.87829,0.43768 z m 33.08386,-165.9735 c 7.21875,-0.6373 20.15625,-1.50275 28.75,-1.92323 8.59375,-0.42047 17.875,-1.4138 20.625,-2.2074 3.19675,-0.92252 18.07353,-1.50339 41.25,-1.6106 19.9375,-0.0923 47.47304,-0.84922 61.19009,-1.68222 16.55454,-1.00532 26.85153,-1.11147 30.625,-0.31573 3.1267,0.65935 14.07273,1.60549 24.3245,2.10254 17.98189,0.87182 18.60451,0.82025 17.64551,-1.46191 -0.54673,-1.30109 -1.16887,-7.14688 -1.38252,-12.99063 -0.32335,-8.84414 -0.7791,-10.83451 -2.71911,-11.875 -1.46667,-0.78661 -8.55908,-0.92054 -19.13207,-0.36126 -9.24077,0.48881 -21.58265,0.80772 -27.4264,0.70869 -5.84375,-0.099 -20.46875,-0.2648 -32.5,-0.36837 -12.03125,-0.1035 -24.125,-0.24465 -26.875,-0.31353 -6.32968,-0.15855 -14.06108,0.34661 -30.73666,2.00831 -45.96797,1.48172 -62.42834,5.79485 -110.36796,4.10775 -8.11453,-0.40379 -9.65924,2.0647 -8.82469,14.10221 0.38574,5.56391 1.09013,10.49798 1.56533,10.96458 2.15142,2.11256 17.12923,2.60425 33.98898,1.1158 z m -44.76405,-9.56684 c 1.41342,-7.95646 1.06125,-14.72981 -0.9007,-17.32375 -1.91437,-2.59841 -1.57091,-6.64394 -4.32048,-8.19069 -4.18058,-4.8691 -7.55889,-10.62425 -11.6653,-14.66653 -6.79382,-6.62885 -13.96191,-12.27227 -35.779328,-28.168964 -3.055175,-2.226073 -9.710519,-7.892061 -14.789656,-12.591083 -5.079136,-4.699024 -9.450713,-8.32776 -9.714614,-8.063859 -0.263901,0.263902 -0.806816,4.108557 -1.206479,8.543679 -0.399662,4.435121 -0.988623,10.557522 -1.308803,13.605333 -0.32018,3.047814 -0.01924,5.889374 0.668768,6.314584 3.522539,2.17705 17.530645,14.3805 17.530645,15.27218 16.594522,13.98625 33.264907,27.20455 48.250147,42.0467 5.06013,5.04621 9.91249,8.93751 10.78303,8.64734 0.87054,-0.29018 1.97429,-2.7314 2.45277,-5.42494 z m 28.51405,-26.08368 c 4.46875,-0.41297 30.0625,-1.32597 56.875,-2.02887 26.8125,-0.70291 51.5625,-1.81409 55,-2.46929 3.4375,-0.6552 24.8125,-1.48985 47.5,-1.85479 22.6875,-0.36493 41.8125,-0.73246 42.5,-0.81671 3.32718,-0.40771 7.88772,-0.75341 11.60423,-0.87962 l 4.10422,-0.13938 -6.60422,-5.75127 c -3.63233,-3.1632 -9.90964,-8.64395 -13.94958,-12.17944 -4.03995,-3.53549 -9.21628,-7.6995 -11.50297,-9.25334 -2.28669,-1.55384 -4.60628,-3.546446 -5.15464,-4.428005 -1.15579,-1.858045 -14.64191,-10.887945 -16.26111,-10.887945 -0.59973,0 -3.53576,-2.491641 -6.52454,-5.53698 -2.98877,-3.04534 -8.59027,-7.651077 -12.44776,-10.234974 -3.8575,-2.583895 -7.58909,-5.295378 -8.29243,-6.025518 -1.5522,-1.611352 -4.62601,-3.565018 -11.1593,-7.092688 -26.7598,-4.324629 -72.96295,0.453001 -96.9369,0.839929 -19.59375,0.308516 -36.4492,0.868588 -37.45656,1.244604 -1.00736,0.376017 -15.63236,0.866088 -32.5,1.089049 -37.505743,0.495758 -55.330948,1.740162 -54.066355,3.774452 0.858473,1.380986 17.044128,16.175278 19.649041,17.959956 5.978734,4.096153 11.927874,8.869869 15.371554,12.334459 2.26746,2.281241 4.55155,4.147711 5.07573,4.147711 1.50584,0 10.32651,8.12985 26.80798,24.70842 11.484,11.55166 15.8602,15.19748 17.74361,14.78226 1.375,-0.30314 6.15625,-0.88904 10.625,-1.30202 z"
       id="path14410"
       inkscape:connector-curvature="0"
       sodipodi:nodetypes="csccsssssssccsssssssscccccsssccscscccssccccssccsssccssscccccscsscccccccccccscccssscsscccssssssssssssssssssssssssssssssccscsscccssssssccsssssssscssssssssccsssssssss" />
  </g>
</svg>
