<?xml version="1.0" encoding="UTF-8" standalone="no"?>
<!-- Created with Inkscape (http://www.inkscape.org/) -->

<svg
   xmlns:dc="http://purl.org/dc/elements/1.1/"
   xmlns:cc="http://creativecommons.org/ns#"
   xmlns:rdf="http://www.w3.org/1999/02/22-rdf-syntax-ns#"
   xmlns:svg="http://www.w3.org/2000/svg"
   xmlns="http://www.w3.org/2000/svg"
   xmlns:sodipodi="http://sodipodi.sourceforge.net/DTD/sodipodi-0.dtd"
   xmlns:inkscape="http://www.inkscape.org/namespaces/inkscape"
   width="77.815819mm"
   height="54.705875mm"
   viewBox="0 0 275.72534 193.83972"
   id="svg2"
   version="1.1"
   inkscape:version="0.91 r13725"
   sodipodi:docname="skills.svg">
  <defs
     id="defs4" />
  <sodipodi:namedview
     id="base"
     pagecolor="#ffffff"
     bordercolor="#666666"
     borderopacity="1.0"
     inkscape:pageopacity="0.0"
     inkscape:pageshadow="2"
     inkscape:zoom="1.979899"
     inkscape:cx="229.66413"
     inkscape:cy="143.73619"
     inkscape:document-units="px"
     inkscape:current-layer="layer1"
     showgrid="false"
     fit-margin-top="0"
     fit-margin-left="0"
     fit-margin-right="0"
     fit-margin-bottom="0"
     inkscape:window-width="1436"
     inkscape:window-height="856"
     inkscape:window-x="588"
     inkscape:window-y="0"
     inkscape:window-maximized="0" />
  <metadata
     id="metadata7">
    <rdf:RDF>
      <cc:Work
         rdf:about="">
        <dc:format>image/svg+xml</dc:format>
        <dc:type
           rdf:resource="http://purl.org/dc/dcmitype/StillImage" />
        <dc:title></dc:title>
      </cc:Work>
    </rdf:RDF>
  </metadata>
  <g
     inkscape:label="Layer 1"
     inkscape:groupmode="layer"
     id="layer1"
     transform="translate(-55.685669,-57.994614)">
    <path
       style=""
       d="m 70.80863,245.43268 c -2.017574,-2.25807 -3.203771,-4.73009 -2.788722,-5.8117 0.39725,-1.03522 0.07361,-5.60705 -0.719182,-10.15964 -0.7928,-4.5526 -1.684938,-18.09991 -1.98253,-30.10516 -0.297591,-12.00524 -1.136278,-24.03813 -1.863751,-26.73975 -0.727471,-2.70163 -1.244641,-7.01805 -1.149264,-9.59207 -1.157281,-27.28117 -11.769235,-57.52643 -3.478122,-84.879679 1.311025,-2.940709 3.809932,-4.027076 27.090645,-11.77731 18.117676,-6.031443 26.623496,-6.587498 46.829756,-3.06143 8.8827,1.550062 16.31391,1.988229 26.25,1.547776 7.62283,-0.33791 33.84179,-0.981677 58.26436,-1.430597 42.55952,-0.7823 48.95722,-1.163358 76.57612,-4.560995 9.22517,-1.13487 13.00253,-1.152979 15.37131,-0.07369 1.7273,0.787006 4.94219,1.434628 7.14421,1.439158 4.69404,0.0096 10.26169,3.365172 13.32044,8.027973 5.04456,44.019374 -2.45192,101.566684 -2.96151,146.338784 1.45481,20.74679 -6.14056,41.76562 -30.67531,34.58145 -62.83592,-10.00912 -168.2833,13.20206 -225.22845,-3.74312 z m 212.52981,-14.00164 c 25.90422,-0.43796 23.74446,-14.57683 23.97467,-34.33669 0.0975,-9.625 0.91284,-23.96875 1.81175,-31.875 0.89891,-7.90625 2.32924,-20.41465 3.1785,-27.79643 4.99188,-45.652762 -6.83627,-56.340036 -36.03771,-53.389674 -19.93821,2.835826 -49.30447,-5.2102 -66.6192,0.01266 -35.43664,3.817568 -103.37722,-9.986887 -126.906281,10.112739 -11.965497,7.355165 -6.958495,6.141245 -6.001735,24.530265 0.598226,11.498 0.928837,24.56169 0.73469,29.03044 -0.677715,15.59921 -0.182646,36.92313 1.001215,43.125 1.27443,6.67633 5.918787,29.56881 6.855255,33.79021 0.548231,2.47132 1.521835,2.54863 35.895916,2.85038 29.4602,0.22974 60.55938,4.1254 80.74714,3.68356 16.98649,-0.3822 34.25951,-0.3069 38.38451,0.16733 13.19408,1.51685 30.6157,1.55543 42.98128,0.0953 z M 173.48216,213.34653 c -5.42385,-1.95202 -6.28032,-5.30322 -2.22224,-8.69505 3.13708,-2.62202 6.14652,-10.83932 8.49004,-23.18213 9.74699,-25.8483 16.47688,-78.52396 31.45165,-85.561742 5.17611,-2.185447 8.83596,14.008552 4.33758,19.192742 -3.56457,4.10799 -17.38789,43.70133 -21.42594,61.369 -4.75279,20.7949 -8.70093,33.17881 -11.4573,35.9375 -3.13484,3.13746 -3.08209,3.13206 -9.17379,0.93968 z m 46.52814,-15.07305 c -8.02774,-8.24413 19.96904,-29.4968 24.2183,-34.20962 7.46074,-8.30732 14.59461,-15.43102 15.85307,-15.83043 1.25847,-0.39943 2.08247,-1.34314 1.83113,-2.09715 -0.39633,-1.18899 -13.04985,-8.93597 -16.55564,-10.13602 -9.51671,-2.70379 -21.21861,-4.979 -22.74334,-15.48128 -0.77757,-5.79725 0.46993,-7.01667 6.92983,-6.77382 3.389,0.12741 5.74634,1.43712 10.1161,5.62042 3.13357,2.99987 11.11151,8.63624 17.72874,12.52528 13.7763,8.09652 14.70177,8.98547 15.68912,15.0698 0.81015,8.72644 -14.3591,18.70704 -16.80269,22.41822 -1.37076,2.32327 -3.97063,5.85342 -5.77748,7.8448 -1.80685,1.99137 -5.8333,7.0907 -8.94765,11.33182 -4.57397,6.22883 -6.77747,8.09108 -11.46272,9.6875 -7.0763,2.41114 -6.67961,2.40994 -10.07677,0.0305 z M 118.04254,155.84043 c 9.99215,-9.23325 10.72576,-9.97595 19.71538,-19.95969 8.26529,-9.1793 20.03032,-18.16139 23.78839,-18.16139 3.26726,0 7.29793,7.25215 6.43333,11.57515 -1.19185,5.95923 -3.60987,8.82995 -10.28423,12.20966 -8.24072,4.17289 -14.88722,8.73692 -22.26194,15.28685 l -6.17369,5.48323 5.54869,3.74734 c 8.32308,6.11719 30.45321,11.57429 31.55119,19.46641 0.56634,4.22237 0.122,5.88216 -2.4925,9.30991 -22.5484,-3.17992 -60.07484,-23.82747 -45.82462,-38.95747 z"
       id="path4201"
       inkscape:connector-curvature="0"
       sodipodi:nodetypes="cssssccsssssscccccccscccccsssccsccssccsssscccsccsssccssscccsssssccccc" />
  </g>
</svg>
