<?xml version="1.0" encoding="UTF-8" standalone="no"?>
<!-- Created with Inkscape (http://www.inkscape.org/) -->

<svg
   xmlns:dc="http://purl.org/dc/elements/1.1/"
   xmlns:cc="http://creativecommons.org/ns#"
   xmlns:rdf="http://www.w3.org/1999/02/22-rdf-syntax-ns#"
   xmlns:svg="http://www.w3.org/2000/svg"
   xmlns="http://www.w3.org/2000/svg"
   xmlns:sodipodi="http://sodipodi.sourceforge.net/DTD/sodipodi-0.dtd"
   xmlns:inkscape="http://www.inkscape.org/namespaces/inkscape"
   width="106.48092mm"
   height="87.485275mm"
   viewBox="0 0 377.29459 309.98719"
   id="svg11145"
   version="1.1"
   inkscape:version="0.91 r13725"
   sodipodi:docname="manual.svg">
  <defs
     id="defs11147" />
  <sodipodi:namedview
     id="base"
     pagecolor="#ffffff"
     bordercolor="#666666"
     borderopacity="1.0"
     inkscape:pageopacity="0.0"
     inkscape:pageshadow="2"
     inkscape:zoom="1.4"
     inkscape:cx="191.80132"
     inkscape:cy="129.44106"
     inkscape:document-units="px"
     inkscape:current-layer="layer1"
     showgrid="false"
     fit-margin-top="0"
     fit-margin-left="0"
     fit-margin-right="0"
     fit-margin-bottom="0"
     inkscape:window-width="2560"
     inkscape:window-height="1159"
     inkscape:window-x="5"
     inkscape:window-y="269"
     inkscape:window-maximized="0" />
  <metadata
     id="metadata11150">
    <rdf:RDF>
      <cc:Work
         rdf:about="">
        <dc:format>image/svg+xml</dc:format>
        <dc:type
           rdf:resource="http://purl.org/dc/dcmitype/StillImage" />
        <dc:title></dc:title>
      </cc:Work>
    </rdf:RDF>
  </metadata>
  <g
     inkscape:label="Layer 1"
     inkscape:groupmode="layer"
     id="layer1"
     transform="translate(-41.693592,-45.304007)">
    <path
       d="m 149.47568,344.07288 c -3.24943,-1.31117 -2.11881,-6.60359 2.54082,-9.92145 1.10075,-0.78377 3.97012,-3.17784 6.37637,-5.32014 2.40625,-2.14228 7.03626,-5.71976 10.28891,-7.94993 3.25264,-2.23018 6.21112,-4.9367 6.57441,-6.0145 0.51529,-1.52882 2.92513,-2.03284 10.96109,-2.29254 15.01436,-0.48524 17.96816,-0.42155 43.42559,0.93639 12.71875,0.67843 30.15625,0.88768 38.75,0.46501 23.96975,-1.17894 25.2534,-1.09891 26.77907,1.66935 0.73703,1.33729 6.09879,6.83677 11.65548,12.48199 11.5884,11.77303 18.96609,16.83457 11.83068,18.67279 -57.63932,14.84899 -134.49326,7.80243 -169.18242,-2.72697 z m 34.97638,-39.32279 c -1.25043,-0.0618 0.93332,-11.04586 0.86643,-19.1736 l -0.0617,-7.5 -14.36946,0.18617 c -39.97922,-0.82054 -75.980859,-2.41693 -113.641393,-4.58087 -13.235359,-4.5359 -14.332894,-9.24131 -15.53178,-35.49148 -0.257189,-5.63127 1.975733,-14.89507 2.360059,-20.73882 0.597201,-9.08052 2.308971,-30.2124 4.910882,-60.625 0.352909,-4.125 0.9365,-21.28125 1.296869,-38.125 0.360369,-16.84375 1.318755,-34.538897 2.129749,-39.322553 1.326339,-7.82344 2.050194,-9.268151 7.20242,-14.375 7.033195,-6.971255 11.211489,-10.052442 13.631771,-10.052442 43.142103,-8.957978 83.898493,-8.599411 126.718523,-8.876203 63.55116,-2.985068 129.86495,3.453372 185.65967,6.403655 6.9803,0.08939 24.51121,9.495874 27.28913,22.560387 6.15142,6.65553 9.65656,124.734916 0.43726,175.537156 -0.72572,3.4375 -1.64231,7.9375 -2.03687,10 -13.55277,24.18826 -61.97189,17.0043 -78.5457,17.03232 -18.5625,0.004 -37.40625,-0.16998 -41.875,-0.38727 l -8.125,-0.39505 0.29511,3.75 c 0.62115,7.89292 0.69187,24.42968 0.107,25.01458 -35.90097,2.11574 -67.80771,1.1526 -98.71797,-0.84098 z m 51.62983,-38.58023 c 3.70915,-1.03024 4.44091,-1.7385 3.90671,-3.78127 -0.9175,-3.50853 -5.1802,-6.1871 -9.84621,-6.1871 -4.52864,0 -12.909,3.18817 -13.18702,5.01678 -0.59267,3.89804 -0.0764,4.40635 5.1875,5.10799 8.87601,1.18308 9.12667,1.18027 13.93902,-0.1564 z m 62.93598,-18.73457 c 13.75,-0.0161 37.87275,-0.004 53.6061,0.0267 47.54314,1.48585 48.70512,-4.90429 52.49966,-46.88553 1.14279,-12.43553 1.66774,-34.32572 1.5588,-65 -3.24098,-27.37529 8.29729,-58.919612 -23.37216,-70.039967 C 282.32981,63.874115 180.3252,49.812905 91.847421,64.574945 54.744371,81.041986 70.257448,107.61573 62.155477,143.67896 c -0.647796,2.41862 -1.134047,10.4517 -1.080559,17.85128 -0.741583,21.62135 -4.091119,41.85341 -4.339596,60.7318 0.956704,31.73177 51.756908,23.84977 70.407788,23.78632 60.7285,-0.23348 94.01531,0.19312 101.25,1.29763 3.09375,0.47232 14.625,0.69222 25.625,0.48867 11,-0.20355 31.25,-0.38329 45,-0.39942 z m 44.72537,-40.26263 c -6.03645,0.0341 -16.34566,-0.4608 -22.90934,-1.09987 -6.56367,-0.63906 -27.05193,-1.349 -45.52948,-1.57763 l -33.59553,-0.41572 -2.9018,-3.62647 c -1.94462,-2.43026 -2.90337,-5.27576 -2.90654,-8.62648 -0.005,-5.03851 3.00459,-22.80395 4.0379,-23.83725 1.61818,-1.61818 20.14497,-2.65677 35.42739,-1.98601 21.67238,0.95121 27.11649,0.90373 47.40203,-0.41347 25.21768,-1.63747 38.02328,-1.31532 43.48186,1.0939 6.59242,2.90963 7.7248,6.47261 6.00445,18.89283 0.97105,21.42555 -8.65727,21.79578 -28.51094,21.59617 z m -91.81486,-13.16681 c -0.53466,-0.33043 -1.89226,-5.33999 -2.09094,-10.20638 -0.32881,-8.05389 1.37211,-8.59544 3.58427,-8.59544 4.46872,0 3.63461,8.91781 2.75919,18.33703 m 2.51574,2.82587 c 16.73204,0.98118 47.28056,1.72713 72.50558,1.77049 26.86803,0.0461 31.0049,-0.2008 31.47117,-1.87888 0.29528,-1.06262 1.1948,-11.78691 1.69032,-14.88066 1.88602,-14.69422 -47.80801,-7.61806 -72.84584,-7.51172 -7.5625,0.0837 -22.02046,-0.23808 -29.65955,-0.71518 -21.91987,-5.16174 -16.18847,7.49275 -17.21545,20.55051 0,1.94445 2.25744,2.67088 3.75,2.5 m 21.40606,-57.16828 c -23.20195,-0.0443 -30.5543,-2.13314 -32.16055,-3.73938 l 0.0992,-14.60247 c 0.91395,-5.09961 -2.1473,-11.89017 0.72953,-15.52114 2.81969,-3.48216 4.31783,-3.56433 39.92577,-2.18971 18.95376,0.7317 34.66692,0.46283 60.35611,-1.03276 19.10211,-1.1121 36.13876,-1.6687 37.85921,-1.23689 6.88855,0.44822 1.82536,29.38029 1.50621,36.38548 -4.68373,5.22229 -78.32036,2.0243 -108.31548,1.93687 z m 100.92159,-12.83172 c -0.5599,-2.40625 -1.04004,-6.34375 -1.06698,-8.75 -0.0685,-6.1182 -1.59839,-7.95569 -6.46689,-7.76696 -2.29282,0.0889 -28.92085,0.2071 -59.17337,0.26271 -30.25253,0.0556 -55.6239,0.50119 -56.38085,0.99018 -0.97656,0.63087 -1.02723,3.43028 -0.17445,9.63907 l 1.20181,8.75 25.65861,-0.18497 c 14.11224,-0.10174 28.25532,0.21553 31.42904,0.70504 13.59979,0.31777 64.57026,3.14096 64.97308,-3.64502 z"
       id="path11828"
       inkscape:connector-curvature="0"
       sodipodi:nodetypes="cssscssssssccscccsssssscccccccscsccssssssccccccccccsscccsscscsssscccssccsccccccccccssccccsssscssccc" />
    <path
       d="m 112.6592,193.63281 c -15.797779,-0.77475 -24.672679,-2.93422 -26.183559,-6.3711 -0.442822,-1.0073 -0.352069,-1.28189 0.5277,-1.59656 2.81097,-1.00543 7.68533,-1.52033 14.181459,-1.49804 l 5.34201,0.0183 0.14212,-1.24228 c 0.0782,-0.68326 0.22945,-2.6496 0.33621,-4.36965 0.10676,-1.72006 0.29535,-3.59561 0.41908,-4.16788 0.12374,-0.57228 0.47888,-6.0329 0.78921,-12.13474 0.31032,-6.10182 0.69161,-12.5127 0.8473,-14.24639 0.48086,-5.35455 0.83283,-8.80881 0.9859,-9.67575 0.19788,-1.12067 0.98479,-2.30085 1.81578,-2.72321 1.11197,-0.5652 5.63857,-0.91009 13.8136,-1.05252 5.4658,-0.0952 8.88181,-0.28971 10.35868,-0.58977 l 0.96261,-0.19558 -0.0808,-2.26623 c -0.0444,-1.24642 -0.057,-6.39305 -0.028,-11.43695 l 0.0528,-9.17071 0.6185,-2.32847 c 0.51908,-1.95422 0.72304,-2.41241 1.26896,-2.85066 1.3164,-1.05679 5.76446,-1.18561 18.37223,-0.53212 8.06257,0.41789 9.54976,0.44588 12.47239,0.23467 5.12629,-0.37046 11.86914,-0.48713 16.65208,-0.28813 l 4.34497,0.18081 1.4706,0.71153 c 1.59367,0.7711 2.33969,1.54002 2.88986,2.97861 0.52971,1.38507 0.50273,6.69639 -0.0712,14.00839 -0.92941,11.84183 -1.09628,13.77617 -1.33687,15.4967 -0.17973,1.2853 -1.33682,31.23277 -1.81876,47.07234 l -0.0351,1.15488 1.37745,0.155 c 0.7576,0.0853 4.65543,0.26874 8.66186,0.40774 6.1913,0.21479 7.46555,0.31092 8.49148,0.6405 1.77587,0.57051 2.78541,1.12662 3.94012,2.17046 1.66734,1.50724 1.91509,2.66579 0.73482,3.43626 -0.55765,0.36405 -0.93321,0.40447 -3.20999,0.34553 -1.41814,-0.037 -4.84743,-0.24166 -7.62063,-0.45543 -7.00273,-0.53982 -15.04455,-0.51945 -42.88645,0.10857 -25.38949,0.57273 -38.00498,0.59138 -48.59845,0.0719 z m 25.0007,-6.98215 c 0.64711,-0.0967 1.22238,-0.21615 1.27839,-0.26549 0.056,-0.0494 0.21954,-1.90194 0.36344,-4.11688 0.1439,-2.21494 0.39464,-5.07861 0.5572,-6.36372 0.16255,-1.28512 0.75604,-5.90213 1.31883,-10.26004 1.3598,-10.52911 1.69329,-14.53351 1.67418,-20.10287 -0.0145,-4.22167 -0.0555,-4.70619 -0.44075,-5.20855 -0.61301,-0.79931 -1.7103,-1.46745 -3.06718,-1.86759 -1.07704,-0.31762 -1.35561,-0.32422 -3.08083,-0.0734 -2.39531,0.34875 -6.37195,0.53896 -12.48834,0.59733 -4.47681,0.0427 -4.86543,0.0773 -5.86434,0.52232 -1.91291,0.85218 -2.44364,1.94171 -2.72803,5.60032 -0.0997,1.28226 -0.22018,2.38688 -0.26779,2.45473 -0.0476,0.0678 -0.29935,2.86263 -0.5594,6.21064 -0.69572,8.95682 -1.21683,13.83989 -2.05924,19.29605 -1.20866,7.82844 -1.46898,11.49234 -0.86913,12.23279 0.32566,0.40199 2.30438,0.5783 8.12394,0.72385 3.09648,0.0775 6.67176,0.2362 7.94507,0.35283 3.53721,0.32393 8.84986,0.46365 10.16398,0.26736 z m -19.66019,-3.25601 c -1.06105,-0.1833 -2.22732,-0.48448 -2.5917,-0.66926 -0.87601,-0.44424 -1.50155,-1.47623 -1.48287,-2.44639 0.0274,-1.42668 1.04144,-5.89872 1.50449,-6.63539 0.76959,-1.22438 1.47898,-1.44935 3.91206,-1.24067 2.60363,0.22331 3.48955,0.62165 4.14273,1.86269 0.44888,0.85289 0.46326,1.06463 0.27651,4.07157 -0.21912,3.52805 -0.45286,4.24531 -1.58035,4.84943 -1.00466,0.53832 -1.98623,0.58715 -4.18087,0.20802 z m 12.40013,0.43423 c -1.69404,-0.20297 -2.72571,-0.80293 -3.17098,-1.84406 -0.21007,-0.49119 -0.27268,-1.64705 -0.22224,-4.10268 0.0782,-3.8205 0.24784,-4.32982 1.70259,-5.12031 0.64913,-0.35272 1.03117,-0.38157 3.52792,-0.26644 2.77149,0.12783 2.80693,0.13549 3.48594,0.75778 0.3773,0.34576 0.7702,0.84092 0.87309,1.10036 0.10292,0.25944 0.25003,2.00558 0.32695,3.88031 0.12864,3.13504 0.10535,3.47687 -0.29033,4.25916 -0.80709,1.59575 -1.97498,1.84606 -6.23294,1.33588 z m -11.39363,-14.49547 c -0.79205,-0.31888 -1.598,-1.03198 -1.86078,-1.64645 -0.15645,-0.36581 -0.37629,-2.08814 -0.48854,-3.82741 -0.22229,-3.44415 -0.12414,-3.97104 0.89713,-4.81587 0.59556,-0.49266 4.49588,-1.51281 5.68995,-1.48825 0.97718,0.0199 2.1034,0.72303 2.67378,1.66881 0.40438,0.6705 0.40714,0.83909 0.0718,4.3833 -0.38099,4.02682 -0.60414,4.71692 -1.75848,5.43813 -0.59003,0.36864 -1.02809,0.43573 -2.79789,0.42856 -1.15408,-0.005 -2.24623,-0.0679 -2.42698,-0.14082 z m 11.62282,0.026 c -0.3477,-0.11179 -0.87611,-0.42045 -1.17424,-0.68592 -0.97469,-0.86797 -1.12574,-1.56881 -1.05793,-4.90882 0.0759,-3.74092 0.37923,-4.54837 1.95589,-5.20715 1.35411,-0.5658 5.43508,-0.47648 6.47502,0.14171 0.8519,0.50641 1.42122,1.51571 1.39995,2.48187 -0.031,1.3877 -0.90456,6.20761 -1.2425,6.85202 -0.56882,1.08465 -1.64812,1.51311 -3.83377,1.5219 -1.03962,0.005 -2.17469,-0.0838 -2.52242,-0.19562 z m 1.06832,-15.62157 c -0.41862,-0.2065 -0.98032,-0.69259 -1.24823,-1.08021 -0.46044,-0.6662 -0.48308,-0.90108 -0.41349,-4.29066 0.0655,-3.19493 0.12196,-3.65567 0.51704,-4.22611 0.24387,-0.35213 0.69166,-0.78237 0.99507,-0.95607 0.58809,-0.33669 3.87793,-0.81673 5.3454,-0.77999 1.77354,0.0444 3.1779,1.45044 3.13053,3.13424 -0.052,1.8474 -0.95374,6.65369 -1.36271,7.26295 -0.71862,1.07055 -1.78637,1.4226 -4.13514,1.3634 -1.52754,-0.0385 -2.26611,-0.15015 -2.82847,-0.42755 z m -12.37266,-0.61608 c -1.21471,-0.7958 -1.50083,-1.52407 -1.80259,-4.58835 l -0.27429,-2.78536 0.53014,-0.93704 c 0.76772,-1.35693 1.92265,-1.81935 4.38955,-1.75755 2.2733,0.057 3.49042,0.54588 4.23233,1.70013 0.45167,0.70271 0.48519,0.99254 0.42991,3.71608 -0.0673,3.31811 -0.29428,3.94238 -1.74348,4.79643 -0.64803,0.38191 -1.03287,0.43342 -2.8901,0.38689 -1.85725,-0.0465 -2.2396,-0.11724 -2.87147,-0.53123 z m 43.83575,33.75857 c 4.49521,5.3e-4 9.11873,-0.0629 10.27449,-0.14084 1.15577,-0.078 4.13922,-0.14491 6.62988,-0.1487 5.50984,-0.008 5.88547,-0.0454 6.23271,-0.61431 0.18137,-0.29712 0.37082,-2.65598 0.57519,-7.16159 0.24423,-5.38449 0.43888,-7.56506 0.98025,-10.98189 0.57589,-3.63469 0.7266,-5.46431 1.02209,-12.40761 0.27933,-6.56424 0.51706,-9.58328 1.22537,-15.56178 0.79315,-6.69464 0.89061,-8.08268 0.99998,-14.24258 0.16493,-9.28748 -0.12288,-11.91759 -1.49399,-13.65325 -1.54825,-1.95989 -6.45595,-2.70146 -12.73694,-1.92462 -3.89825,0.48216 -7.70837,0.55679 -16.79788,0.32908 -9.24904,-0.23172 -11.41138,-0.13493 -13.64663,0.61081 -3.57028,1.19114 -5.17084,3.6723 -5.28253,8.18891 -0.0306,1.23237 0.0609,2.84262 0.20317,3.57834 0.2031,1.05054 0.19203,2.21535 -0.0517,5.42634 -0.41601,5.4827 -0.44645,5.34609 1.3639,6.11974 1.02155,0.43656 1.85461,1.00493 2.79238,1.90514 1.15819,1.1118 1.40109,1.48647 1.8206,2.80834 0.46419,1.46264 0.47875,1.78931 0.35384,7.94255 -0.0717,3.52944 -0.29012,8.01827 -0.48551,9.97518 -0.19538,1.95689 -0.73723,7.35483 -1.2041,11.99539 -0.94501,9.393 -1.24136,15.70884 -0.79525,16.94836 l 0.2776,0.7713 4.78494,0.11835 c 2.63171,0.0651 8.46285,0.11873 12.95805,0.11925 z m -13.62107,-3.6677 c -1.56581,-0.71571 -1.87578,-1.79829 -1.62618,-5.67951 0.20039,-3.11598 0.40159,-3.7561 1.30812,-4.16202 0.70387,-0.31516 8.93865,-1.31461 9.39517,-1.14026 0.90719,0.34641 1.50992,2.4188 1.64124,5.64313 0.11086,2.72182 -0.14665,4.10088 -0.82173,4.40057 -0.21038,0.0934 -1.11009,0.21116 -1.99934,0.2617 -0.88925,0.0506 -2.18586,0.26508 -2.88132,0.47677 -1.64905,0.50193 -4.13785,0.60099 -5.01596,0.19962 z m 23.09131,-0.38088 c -0.66615,-0.10192 -2.42095,-0.22469 -3.89958,-0.27282 -2.01829,-0.0658 -2.7659,-0.16235 -2.99928,-0.38776 -0.23052,-0.22266 -0.33443,-1.16893 -0.40206,-3.66122 -0.0837,-3.08364 -0.0542,-3.43296 0.35841,-4.23362 0.89224,-1.7318 2.1398,-2.33813 5.72805,-2.78389 5.12083,-0.63616 7.42653,0.051 8.13672,2.42521 0.43093,1.44063 0.31731,7.0523 -0.15918,7.86126 -0.68927,1.17026 -1.31901,1.40457 -3.54004,1.31726 -1.10657,-0.0435 -2.55693,-0.1625 -3.22307,-0.26442 z m -23.96136,-17.53881 c -0.3936,-0.91159 -0.26802,-7.14985 0.17485,-8.68081 0.45088,-1.55899 0.86375,-1.76332 3.85607,-1.90842 1.37556,-0.0667 3.64357,-0.0928 5.04002,-0.058 2.96219,0.0739 3.73204,0.3738 4.47145,1.74229 0.40565,0.75078 0.43878,1.15294 0.36164,4.39125 -0.0724,3.04231 -0.14326,3.64297 -0.48301,4.0982 -0.21896,0.29339 -0.56741,0.59855 -0.77435,0.67813 -0.20694,0.0796 -2.7124,0.15356 -5.5677,0.16435 -2.85529,0.0108 -5.54896,0.0747 -5.98595,0.1419 -0.74769,0.11506 -0.8121,0.0815 -1.09293,-0.56888 z m 22.46623,0.59242 c -1.06749,-0.23527 -2.40097,-0.65204 -2.96328,-0.92615 l -1.0224,-0.4984 -0.0337,-1.73333 c -0.0426,-2.19158 0.44237,-6.13842 0.86198,-7.01525 0.58804,-1.22882 0.93776,-1.30455 6.0363,-1.30716 5.16324,-0.002 6.3283,0.17592 6.7284,1.03143 0.17056,0.36465 0.15454,1.77825 -0.0573,5.0629 -0.33245,5.15309 -0.32697,5.13861 -2.14527,5.66139 -1.39206,0.40025 -4.9372,0.26837 -7.40468,-0.27543 z m -12.10876,-17.63568 c -0.51573,-0.10971 -2.2937,-0.31918 -3.95105,-0.4655 -2.35485,-0.20791 -3.06905,-0.33958 -3.26814,-0.60253 -0.4801,-0.6341 -1.07526,-5.90603 -1.01849,-9.02187 0.0517,-2.84931 0.34719,-3.0181 4.28463,-2.44948 1.05141,0.15184 1.93705,0.14301 3.09317,-0.0308 2.20183,-0.33112 3.25712,-0.27504 4.08493,0.21705 1.26096,0.74958 1.44479,1.4111 1.22743,4.41684 -0.24158,3.34045 -0.86172,6.72954 -1.37446,7.51139 -0.32496,0.49552 -0.54844,0.6036 -1.26743,0.61299 -0.4801,0.006 -1.29487,-0.0784 -1.81059,-0.18806 z m 9.77941,-0.0923 c -1.88727,-0.16279 -2.0933,-0.25583 -2.07944,-0.93896 0.0125,-0.61654 0.56561,-4.52116 1.02785,-7.25626 0.3334,-1.97272 0.93171,-2.95916 2.12026,-3.49567 0.83548,-0.37714 1.36657,-0.42557 4.60171,-0.41963 4.41208,0.008 5.96711,0.27704 6.8444,1.18378 0.82514,0.8528 0.92954,1.94463 0.55728,5.82728 -0.33038,3.4458 -0.65439,4.5404 -1.45385,4.91143 -0.8876,0.41196 -7.73699,0.52281 -11.61821,0.18803 z m -15.48443,-17.1728 c -3.01855,-0.4014 -3.37276,-0.88766 -2.97152,-4.07927 0.15186,-1.20799 0.40092,-3.79628 0.55346,-5.75176 0.22923,-2.93853 0.34208,-3.59688 0.65049,-3.79453 0.55275,-0.35425 3.23129,-0.8013 4.57213,-0.76309 1.85137,0.0525 7.41301,0.75984 7.87305,1.00097 0.77185,0.40454 0.89558,1.35701 0.49241,3.7906 -0.20344,1.22803 -0.40289,3.76231 -0.44321,5.63172 -0.04,1.86942 -0.17498,3.63166 -0.29924,3.9161 l -0.22593,0.51717 -4.36538,-0.13612 c -2.40097,-0.0748 -5.02728,-0.22417 -5.83626,-0.33175 z m 16.46297,-1.322 c -0.26541,-0.18056 -0.59717,-0.53282 -0.73724,-0.78281 -0.35136,-0.62708 -0.48547,-6.14807 -0.20659,-8.50434 0.19948,-1.6853 0.29934,-1.98507 0.786,-2.3593 0.91476,-0.70345 2.73879,-0.88945 7.64878,-0.77999 3.92858,0.0876 4.61967,0.15087 5.23335,0.47902 0.39055,0.20887 0.7639,0.60562 0.83408,0.88635 0.0699,0.27954 -0.002,2.40855 -0.1619,4.73113 -0.41959,6.13148 -0.48848,6.21234 -5.38444,6.32001 -1.58011,0.0348 -3.32172,0.13608 -3.87024,0.22517 -1.59921,0.25972 -3.59613,0.15594 -4.14179,-0.21524 z"
       id="path6705"
       inkscape:connector-curvature="0" />
  </g>
</svg>
