<?xml version="1.0" encoding="UTF-8" standalone="no"?>
<!-- Created with Inkscape (http://www.inkscape.org/) -->

<svg
   xmlns:dc="http://purl.org/dc/elements/1.1/"
   xmlns:cc="http://creativecommons.org/ns#"
   xmlns:rdf="http://www.w3.org/1999/02/22-rdf-syntax-ns#"
   xmlns:svg="http://www.w3.org/2000/svg"
   xmlns="http://www.w3.org/2000/svg"
   xmlns:sodipodi="http://sodipodi.sourceforge.net/DTD/sodipodi-0.dtd"
   xmlns:inkscape="http://www.inkscape.org/namespaces/inkscape"
   width="80.965134mm"
   height="93.986122mm"
   viewBox="0 0 286.88433 333.02169"
   id="svg6772"
   version="1.1"
   inkscape:version="0.91 r13725"
   sodipodi:docname="empty_file.svg">
  <defs
     id="defs6774" />
  <sodipodi:namedview
     id="base"
     pagecolor="#ffffff"
     bordercolor="#666666"
     borderopacity="1.0"
     inkscape:pageopacity="0.0"
     inkscape:pageshadow="2"
     inkscape:zoom="1.979899"
     inkscape:cx="-133.15483"
     inkscape:cy="151.83057"
     inkscape:document-units="px"
     inkscape:current-layer="layer1"
     showgrid="false"
     fit-margin-top="0"
     fit-margin-left="0"
     fit-margin-right="0"
     fit-margin-bottom="0"
     inkscape:window-width="2560"
     inkscape:window-height="1159"
     inkscape:window-x="1"
     inkscape:window-y="4"
     inkscape:window-maximized="0" />
  <metadata
     id="metadata6777">
    <rdf:RDF>
      <cc:Work
         rdf:about="">
        <dc:format>image/svg+xml</dc:format>
        <dc:type
           rdf:resource="http://purl.org/dc/dcmitype/StillImage" />
        <dc:title></dc:title>
      </cc:Work>
    </rdf:RDF>
  </metadata>
  <g
     inkscape:label="Layer 1"
     inkscape:groupmode="layer"
     id="layer1"
     transform="translate(-84.583402,-41.787449)">
    <path
       d="m 169.50964,371.49189 c -21.48742,-10.71118 -31.03285,-61.77133 -37.90193,-82.52253 -10.9619,-21.92324 -12.07798,-49.35924 -20.4521,-71.25 -2.43481,-6.13785 -10.11447,-40.43258 -9.93696,-44.375 0.19238,-4.27249 -8.012266,-37.54233 -14.488277,-58.75 -5.059149,-16.121656 -0.810845,-23.83803 8.900611,-26.611672 5.803616,-1.805073 16.618216,-4.94327 22.315446,-6.47553 3.4375,-0.92451 11.875,-3.624257 18.75,-5.99944 13.21033,-4.563918 20.06331,-6.377593 70,-18.525846 36.82114,-8.957592 65.20429,-15.219755 68.8681,-15.194346 3.01598,0.02091 20.4156,9.912301 25.32198,14.395099 1.82046,1.663292 6.32842,6.226356 10.0177,10.140141 14.02292,8.658751 13.1889,21.150164 16.66517,33.083416 1.26602,3.837598 2.87457,10.090498 3.57453,13.895318 11.58275,51.92694 22.23844,114.48967 34.87338,165.66786 2.62219,8.34243 5.32539,24.46843 5.44797,32.5 0.10213,6.6914 -2.96762,11.12595 -8.53125,12.32418 -32.06825,10.01037 -64.1077,24.53628 -93.73765,30.90128 -17.37456,5.65772 -35.20323,13.39056 -51.875,16.36692 -15.81908,3.24966 -33.35837,6.28753 -47.81172,0.43015 z m 40.93679,-21.49666 c 12.375,-3.05876 23.625,-6.04621 25,-6.6388 3.04988,-1.31439 11.95411,-4.00341 41.25,-12.45725 31.12444,-8.9815 37.36818,-10.95619 48.125,-15.22037 14.05935,-5.57337 22.41573,-9.28903 26.00547,-13.1244 -7.33882,-31.10632 -40.40006,-204.210054 -40.40006,-204.210054 -6.30082,2.206104 -33.2261,17.488004 -36.45059,15.540204 -2.77015,-1.74682 -7.78564,-16.039805 -7.86564,-22.415204 -0.054,-4.308308 -4.51981,-29.272279 -5.39259,-30.145055 -0.34025,-0.340245 -31.75227,7.28165 -44.64661,10.83317 -4.46875,1.230839 -12.0625,3.16032 -16.875,4.287735 -10.249,2.401015 -23.44616,5.888854 -33.125,8.754509 -3.78125,1.119531 -9.6875,2.551837 -13.125,3.182905 -50.11587,16.25449 -48.38572,29.29396 -39.42934,66.21174 21.70083,56.65201 38.45804,178.10139 62.63153,201.29771 2.31869,1.43302 9.95411,0.12025 34.29781,-5.89684 z m -36.57431,-46.63391 c -0.85288,-1.36568 -1.55069,-3.59291 -1.55069,-4.94941 0,-2.75562 5.89991,-8.81755 8.58186,-8.81755 23.19986,-6.23848 47.05997,-16.45862 68.29314,-24.36543 51.63051,-23.97595 79.5775,-9.8987 11.25005,13.73403 -4.125,1.59772 -8.90625,3.29026 -10.625,3.76118 -1.71875,0.47093 -6.78125,2.42669 -11.25,4.34615 -10.14352,2.29376 -57.94322,25.86503 -64.69931,16.29103 z m 6.57431,-63.9543 c 10.3125,-3.36046 23.53125,-7.98049 29.375,-10.26674 11.18043,-4.37412 32.82433,-11.28737 39.65941,-12.66756 6.07412,-1.22654 8.39715,0.0776 12.03087,6.7539 -0.53967,16.24765 -67.48022,24.67269 -87.03504,34.52199 -24.16673,8.48292 -13.34636,-12.09904 5.96976,-18.34159 z M 307.31902,85.088177 c -4.39282,-9.039909 -13.86878,-12.33885 -19.14137,-18.226148 -12.49592,-9.018538 -10.94174,-9.119888 -10.39032,6.306843 0.52624,14.722091 2.84799,26.425484 5.24235,26.425484 5.3389,-3.578265 23.36748,-9.548463 24.28934,-14.506179 z"
       id="path7452"
       inkscape:connector-curvature="0"
       sodipodi:nodetypes="cccsccsssssccccscccccsssccccssssccccccscccsccccsscccccscc" />
  </g>
</svg>
