<?xml version="1.0" encoding="UTF-8" standalone="no"?>
<!-- Created with Inkscape (http://www.inkscape.org/) -->

<svg
   xmlns:dc="http://purl.org/dc/elements/1.1/"
   xmlns:cc="http://creativecommons.org/ns#"
   xmlns:rdf="http://www.w3.org/1999/02/22-rdf-syntax-ns#"
   xmlns:svg="http://www.w3.org/2000/svg"
   xmlns="http://www.w3.org/2000/svg"
   xmlns:sodipodi="http://sodipodi.sourceforge.net/DTD/sodipodi-0.dtd"
   xmlns:inkscape="http://www.inkscape.org/namespaces/inkscape"
   width="82.372711mm"
   height="122.70298mm"
   viewBox="0 0 291.87181 434.77434"
   id="svg15204"
   version="1.1"
   inkscape:version="0.91 r13725"
   sodipodi:docname="empty-bag.svg">
  <defs
     id="defs15206" />
  <sodipodi:namedview
     id="base"
     pagecolor="#ffffff"
     bordercolor="#666666"
     borderopacity="1.0"
     inkscape:pageopacity="0.0"
     inkscape:pageshadow="2"
     inkscape:zoom="0.98994949"
     inkscape:cx="144.50065"
     inkscape:cy="398.68001"
     inkscape:document-units="px"
     inkscape:current-layer="layer1"
     showgrid="false"
     fit-margin-top="0"
     fit-margin-left="0"
     fit-margin-right="0"
     fit-margin-bottom="0"
     inkscape:window-width="2560"
     inkscape:window-height="1159"
     inkscape:window-x="27"
     inkscape:window-y="7"
     inkscape:window-maximized="0" />
  <metadata
     id="metadata15209">
    <rdf:RDF>
      <cc:Work
         rdf:about="">
        <dc:format>image/svg+xml</dc:format>
        <dc:type
           rdf:resource="http://purl.org/dc/dcmitype/StillImage" />
        <dc:title></dc:title>
      </cc:Work>
    </rdf:RDF>
  </metadata>
  <g
     inkscape:label="Layer 1"
     inkscape:groupmode="layer"
     id="layer1"
     transform="translate(-64.614094,-20.35776)">
    <path
       d="m 189.6776,453.86369 c -1.20857,-0.7038 -2.75545,-0.93475 -3.4375,-0.51323 -0.68205,0.42154 -1.94322,0.3298 -2.8026,-0.20385 -0.85937,-0.53366 -3.25,-1.07751 -5.3125,-1.20856 -10.84132,-0.68887 -27.88595,-2.88357 -30.625,-3.94335 -3.70771,-1.43456 -16.94853,-3.7054 -30.00181,-5.14539 -5.15724,-0.56892 -12.01701,-2.23716 -15.24392,-3.70718 -3.226907,-1.47003 -7.197561,-2.67278 -8.823673,-2.67278 l -2.956569,0 -0.168236,-54.0625 c -0.161809,-51.99717 -1.475703,-86.60865 -4.092693,-107.8125 -0.678813,-5.5 -1.539793,-15.34375 -1.91329,-21.875 -0.588363,-10.28859 -1.046177,-12.16352 -3.426945,-14.0347 -5.141793,-3.05217 -10.710974,-6.13666 -13.088087,-11.60701 -5.465493,-17.41299 -4.20427,-29.08551 6.445491,-41.14086 3.014145,-3.37752 6.013073,-7.87699 6.664284,-9.99883 1.320816,-4.30361 -0.199363,-10.7156 -2.922328,-12.32614 -1.240891,-0.73393 -0.332636,-2.39435 3.58975,-6.5625 2.888023,-3.06897 5.765405,-5.57996 6.394187,-5.57996 0.62878,0 1.767748,-0.78112 2.53104,-1.73584 12.272319,-7.36075 25.654759,-12.55249 38.887799,-18.93483 7.5625,-3.65502 19.56684,-8.95282 26.6763,-11.7729 19.10582,-7.7142 35.80551,-16.55051 54.5737,-25.222525 3.4375,-1.581036 10.81305,-5.831129 16.3901,-9.44465 5.50893,-3.660203 20.75179,-10.340189 26.54507,-10.389254 4.48672,0 4.95543,-0.357208 6.97095,-5.3125 6.70385,-16.481927 10.44742,-21.587901 23.25072,-31.712277 12.47781,-9.458918 38.65694,-20.420438 55.09414,-15.267434 14.42341,7.109315 18.80877,11.498698 17.3419,23.207898 C 354.9504,54.993364 347.8918,73.341813 343.57072,77.760621 340.59299,80.80569 332.5,91.76385 332.5,92.75071 c 0,0.929425 8.68637,3.469468 15.625,4.569016 13.27855,6.231314 2.1095,34.850194 3.30193,46.936724 -0.057,18.51289 -0.0299,25.52562 -0.72075,42.84194 -0.4277,10.99777 -1.03298,21.68346 -1.34506,23.74596 -0.44379,2.93295 -0.69913,20.6716 -0.4633,32.1875 -1.36944,11.67624 1.78141,24.40543 1.93618,35.0433 0.09,7.41444 0.597,18.10194 1.12679,23.75 0.21252,15.45409 7.06862,41.03025 0.14855,53.3942 -3.0429,5.06163 -4.59761,6.38929 -11.60612,9.91115 -14.88895,11.60908 -33.08327,17.6379 -48.00314,29.39974 -31.90145,15.20226 -61.8229,46.10881 -92.83851,57.78109 -1.90493,0.40201 -3.76625,1.22077 -4.13628,1.81947 -0.88069,1.425 -3.11736,1.32284 -5.84761,-0.26711 z m 0.89995,-10.20684 c -1.5244,-11.35976 -1.71417,-20.06369 -0.48742,-22.3559 0.74664,-1.3951 0.7387,-6.50652 -0.0215,-13.83459 -3.15941,-30.45611 -4.86523,-68.72073 -3.77798,-84.74701 0.16325,-2.40625 0.25055,-6.0625 0.19402,-8.125 -0.0565,-2.0625 0.17332,-11.34375 0.5108,-20.625 0.33748,-9.28125 0.0152,-25.03125 -0.71613,-35 -2.21536,-30.1969 -2.64536,-51.2169 -1.20967,-59.13421 1.38463,-7.63583 0.75426,-9.7898 -3.02747,-10.34485 -17.44052,14.99204 -23.45402,27.1167 -39.8547,39.49287 -13.69575,7.8355 -38.82576,17.15457 -49.106474,11.71732 -7.187677,-1.3941 1.048535,33.79799 1.312677,40.79211 0.276966,9.26841 0.823539,22.7579 1.214606,29.97665 0.391067,7.21875 0.95671,20.3558 1.256984,29.19345 0.300274,8.83764 1.042033,16.71264 1.648353,17.5 1.213373,1.57566 0.968632,46.88904 -0.300873,55.70604 -0.43749,3.03847 -1.269874,7.63606 -1.849742,10.21686 -1.087688,4.84095 0.04485,7.38365 3.288731,7.38365 1.728308,0 23.305528,4.98435 35.670868,8.23999 3.95869,1.04227 7.7431,1.55791 8.4098,1.14587 0.6667,-0.41204 4.10655,0.11038 7.64414,1.16093 3.53757,1.05053 6.85562,1.64823 7.37343,1.32821 0.51782,-0.32003 3.68278,0.17966 7.03324,1.11042 3.35048,0.93077 9.46676,2.39063 13.59176,3.24414 4.125,0.8535 8.0625,1.72536 8.75,1.93745 2.99929,0.92526 3.2855,0.22748 2.45255,-5.97951 z m -24.65983,-24.375 c -6.29434,-6.5677 -10.63539,-10.3125 -11.95448,-10.3125 -0.61935,0 -2.46757,-1.03096 -4.10716,-2.29104 -13.22782,-6.96148 -34.19884,0.50326 -42.35608,8.54104 -2.81134,2.81134 -3.57926,2.9674 -6.25,1.27018 -1.558031,-0.99012 -1.676725,-2.46224 2.16055,-4.66837 5.2237,-3.00321 11.28346,-9.10181 12.45128,-9.10181 0.60029,0 4.35996,-3.30299 8.35482,-7.33997 6.9841,-7.05775 7.33048,-7.7186 9.00852,-17.1875 1.23677,-6.97889 1.96465,-26.77968 2.49866,-67.97253 0.6737,-51.9671 1.57697,-66.77436 3.49964,-57.3683 0.33651,1.64631 1.01342,4.96205 1.50425,7.3683 0.49082,2.40625 1.01546,9.00835 1.16587,14.67134 -0.4918,6.54797 2.6064,13.23935 2.08255,19.07866 -0.7961,8.21606 -0.3169,84.9654 0.55804,89.375 5.49353,10.01031 26.26371,26.98099 27.96582,38.0512 0,3.68551 -1.47988,3.2103 -6.58228,-2.1137 z m 45.47621,13.70363 c 4.77974,-3.5817 26.57941,-16.53217 39.23107,-23.30588 26.76896,-24.25383 63.73593,-33.6662 86.09999,-55.79815 l 7.34999,-7.33707 -0.81261,-34.10002 c -0.44694,-18.75501 -1.1025,-37.47501 -1.45679,-41.60001 -0.35429,-4.125 -0.87794,-30.28125 -1.16369,-58.125 -0.28574,-27.84375 -0.76094,-57.65625 -1.05599,-66.25 -0.30408,-8.85692 0.0155,-17.29225 0.73777,-19.47407 0.70852,-2.14029 0.88522,-6.443 0.39801,-9.69193 -0.83473,-5.56636 -1.03519,-5.8053 -4.23643,-5.04937 -1.84813,0.43641 -4.48525,1.75544 -5.86025,2.93118 -2.879,2.46178 -20.5259,11.83994 -30.625,16.27517 -3.78125,1.66061 -10.53125,5.36097 -15,8.22302 -4.46875,2.86206 -14.875,9.0498 -23.125,13.75054 -8.25,4.70074 -15.28125,8.91821 -15.625,9.37216 -0.34375,0.45395 -4,2.69721 -8.125,4.98503 -4.125,2.28782 -9.1875,5.3184 -11.25,6.73461 -2.0625,1.41622 -4.875,3.23914 -6.25,4.05095 -1.375,0.8118 -6.78181,4.04476 -12.01513,7.18435 -5.23333,3.1396 -10.14448,5.70836 -10.91369,5.70836 -3.17345,0 -3.83229,14.32325 -1.78244,38.75 1.07085,12.76056 1.07326,18.23635 0.0169,38.125 -0.26512,4.99106 1.23027,47.45096 2.42128,68.75 0.346,6.1875 0.78542,18.28125 0.97648,26.875 0.19106,8.59375 0.48696,15.90625 0.65755,16.25 0.1706,0.34375 0.17951,1.1875 0.0199,1.875 -0.38523,1.65843 0.16968,28.13489 0.98899,47.1875 0.24264,5.64238 0.43334,5.9375 3.83675,5.9375 1.96979,0 4.92291,-1.00524 6.5625,-2.23387 z M 142.96005,209.82429 c 4.55948,-5.09441 8.28995,-9.63441 8.28995,-10.08889 0,-0.45447 1.96875,-3.68837 4.375,-7.18645 2.40625,-3.49807 4.375,-7.13321 4.375,-8.07809 0,-1.95735 -7.67152,-5.62207 -12.82277,-6.1255 -23.28091,-7.85143 -26.08847,-4.65749 -43.4514,3.0152 -12.750086,6.90515 -16.751945,11.03596 -15.765409,24.7736 0.484714,36.14958 41.779189,18.27003 54.999629,3.69013 z m 61.56269,-34.13 c 6.10625,-3.17628 11.8738,-6.39568 12.81678,-7.15421 1.56762,-1.261 5.34272,-3.36108 19.5618,-10.88218 4.97006,-2.62889 5.02602,-2.73785 5,-9.73609 0.41867,-21.1653 2.34191,-39.86366 -0.48307,-60.451175 -0.23998,-1.246241 -9.06828,2.567638 -12.04325,5.202756 -1.375,1.217927 -7,4.628663 -12.5,7.579419 -39.7497,20.09158 -76.59664,33.93292 -116.5625,57.96068 21.58317,4.15757 29.46465,5.91812 38.4375,8.5861 5.84375,1.73757 16.25,4.66912 23.125,6.51457 6.875,1.84544 15.875,4.41112 20,5.7015 4.125,1.29039 8.41024,2.37035 9.52274,2.39993 1.1125,0.0296 7.01875,-2.54501 13.125,-5.7213 z M 95.065068,168.73933 c 0.94711,-0.3157 1.223566,-1.1962 0.661249,-2.10605 -2.43269,-0.33333 -8.712157,2.03421 -7.504664,5.26218 0.619189,1.61359 1.040693,1.56155 2.96875,-0.36651 1.235905,-1.2359 2.979505,-2.49124 3.874665,-2.78962 z M 263.75,141.9941 c 1.03125,-0.80877 6.375,-3.8575 11.875,-6.77495 5.5,-2.91744 13.375,-7.21857 17.5,-9.55807 4.125,-2.33951 13.50418,-7.27166 20.84262,-10.96034 13.90988,-6.99185 19.38836,-10.31391 18.45697,-11.19205 -1.51486,-1.42824 -17.17531,-4.539339 -22.84986,-4.539339 -15.7616,-5.377324 -21.35301,-8.826304 -33.32473,-10.693922 -3.09375,-0.46552 -6.46875,-1.274046 -7.5,-1.796724 -1.03125,-0.522677 -5.67187,-1.345876 -10.3125,-1.82933 -13.10051,-1.708121 -8.10123,22.363595 -8.15138,32.175075 -0.0584,14.28905 -0.48744,27.71593 -0.95342,29.8375 l -0.84722,3.8574 6.69476,-3.52737 c 3.68211,-1.94005 7.53851,-4.1891 8.56976,-4.99788 z m 58.48089,-59.587249 c 3.6158,-3.609375 8.25263,-8.53125 10.30405,-10.9375 3.9807,-4.669202 8.71506,-17.764211 8.71506,-24.105421 0,-4.416242 -2.51752,-12.3216 -4.36833,-13.717105 -1.83073,-1.380367 -14.28993,0.185468 -19.38167,2.43583 -24.13146,12.451347 -56.97721,37.618547 -23.125,47.66905 3.90142,1.167226 13.73638,3.587355 20.64087,5.079178 0.35247,0.07616 3.59923,-2.814657 7.21502,-6.424032 z"
       id="path15817"
       inkscape:connector-curvature="0"
       sodipodi:nodetypes="cccssssscssscccssssccccccscccsscccscccccccccccssscsssccccsssssssssssssccssccssssssssccccsccccsssssssssssssssssssssccsscccsssccccsssccsccssscssccsssssssccsccscssssssccss" />
  </g>
</svg>
