<?xml version="1.0" encoding="UTF-8" standalone="no"?>
<!-- Created with Inkscape (http://www.inkscape.org/) -->

<svg
   xmlns:dc="http://purl.org/dc/elements/1.1/"
   xmlns:cc="http://creativecommons.org/ns#"
   xmlns:rdf="http://www.w3.org/1999/02/22-rdf-syntax-ns#"
   xmlns:svg="http://www.w3.org/2000/svg"
   xmlns="http://www.w3.org/2000/svg"
   xmlns:sodipodi="http://sodipodi.sourceforge.net/DTD/sodipodi-0.dtd"
   xmlns:inkscape="http://www.inkscape.org/namespaces/inkscape"
   width="100.60846mm"
   height="82.335037mm"
   viewBox="0 0 356.48667 291.73832"
   id="svg4170"
   version="1.1"
   inkscape:version="0.91 r13725"
   sodipodi:docname="faqs.svg">
  <defs
     id="defs4172" />
  <sodipodi:namedview
     id="base"
     pagecolor="#ffffff"
     bordercolor="#666666"
     borderopacity="1.0"
     inkscape:pageopacity="0.0"
     inkscape:pageshadow="2"
     inkscape:zoom="1.4"
     inkscape:cx="231.28333"
     inkscape:cy="94.433722"
     inkscape:document-units="px"
     inkscape:current-layer="layer1"
     showgrid="false"
     fit-margin-top="0"
     fit-margin-left="0"
     fit-margin-right="0"
     fit-margin-bottom="0"
     inkscape:window-width="2560"
     inkscape:window-height="1396"
     inkscape:window-x="13"
     inkscape:window-y="30"
     inkscape:window-maximized="0" />
  <metadata
     id="metadata4175">
    <rdf:RDF>
      <cc:Work
         rdf:about="">
        <dc:format>image/svg+xml</dc:format>
        <dc:type
           rdf:resource="http://purl.org/dc/dcmitype/StillImage" />
        <dc:title></dc:title>
      </cc:Work>
    </rdf:RDF>
  </metadata>
  <g
     inkscape:label="Layer 1"
     inkscape:groupmode="layer"
     id="layer1"
     transform="translate(-13.279397,-6.4861755)">
    <path
       d="M 190.68182,295.01796 C 170.75267,286.76484 144.03376,278.32097 125.48249,275.19526 87.739125,266.98445 56.1655,266.66833 20.721727,269.99266 11.097706,234.00553 10.312502,47.911896 21.284627,23.241847 54.537332,7.6606186 106.06947,9.580596 137.03761,18.523061 c 24.15697,7.39756 39.44766,14.51327 45.97268,21.39392 13.09465,9.886497 16.8903,3.981831 22.47156,0.508076 38.48916,-23.86381 71.10033,-33.6454816 112.06724,-33.6462656 41.54758,-3.7472053 45.39832,29.1509846 46.81589,61.0834796 0.25342,6.78054 1.2235,23.11156 2.15574,36.291139 0.93225,13.17959 1.7957,41.75344 1.91879,63.49745 2.32408,30.8188 1.21229,61.54125 -0.42427,90.99533 -0.71303,14.47177 -2.06107,15.115 -29.58828,14.11824 -12.77098,-0.46245 -33.64779,-0.77502 -46.39291,-0.69465 -27.16684,2.17427 -60.81921,7.76249 -82.01169,22.30128 -6.35628,4.89802 -13.62394,5.1411 -19.34054,0.6469 z m -8.48464,-36.78147 c 0.82158,-57.60788 7.78054,-130.32518 -0.15496,-184.231714 3.72717,-22.170478 -30.12512,-19.238369 -46.30227,-23.655285 -2.86162,-0.87949 -15.28208,-2.91838 -27.60102,-4.53088 -20.794615,-1.684799 -52.126794,-2.74568 -65.994807,8.12008 -3.076368,25.910932 -7.115408,51.358969 -8.303596,78.456689 3.5145,35.35859 8.939267,73.29743 9.278397,106.97715 15.742539,14.87273 81.646106,9.07523 107.748786,15.67466 5.59093,0.5261 13.97732,2.31111 18.63643,3.96669 11.31632,4.02118 10.87714,4.04807 12.69311,-0.77739 z M 70.740476,161.72772 c -3.871186,-5.12813 -9.209944,-12.28741 -6.54086,-18.13204 0.733435,-1.60604 3.180987,-1.78459 4.94249,-1.90458 12.865755,-0.8764 24.925659,6.80552 37.652144,8.88691 13.3013,2.1754 27.17306,0.51498 40.2614,3.73244 3.35931,0.82581 9.53251,0.48359 9.60005,3.94225 0.0859,4.40121 -7.78605,4.25379 -12.01104,5.48969 -15.08683,4.41321 -30.9895,5.89749 -46.692764,6.60186 -5.466842,0.24522 -11.231813,0.97715 -16.395831,-0.83376 -4.191331,-1.46981 -8.139555,-4.23785 -10.815589,-7.78277 z m 67.420514,-50.36714 c -10.6239,-2.33528 -21.50796,-3.74335 -32.38142,-4.04105 -9.308682,-0.25486 -18.557859,1.81656 -27.869244,1.93751 -5.416165,0.0703 -12.296253,3.01328 -16.23454,-0.70555 -5.811262,-5.48743 -4.638658,-16.180356 -2.41142,-23.856429 0.632996,-2.181591 2.06855,-4.596811 4.20795,-5.36035 11.919948,-4.254157 24.776182,5.21196 37.056744,8.27314 6.65711,1.659419 13.29873,3.407615 19.84262,5.46875 6.57376,2.070545 13.36988,3.739463 19.48353,6.92141 3.5376,2.077129 13.82248,9.319849 13.55377,11.800699 -4.2853,5.47738 -10.447,0.64249 -15.24799,-0.43813 z M 242.9117,91.40755 c 0,0 32.51787,-11.707204 49.41314,-11.340419 3.99622,0.08675 7.9015,1.577329 11.56021,3.18703 1.68142,0.739766 3.71457,1.357681 4.66929,2.92706 3.40816,5.602385 5.39107,14.244729 1.6155,19.606399 -1.27322,1.80811 -4.19722,1.71394 -6.40864,1.71539 -4.72875,0.003 -10.00896,-3.28237 -13.70861,-3.65016 -17.08132,-3.957349 -70.25423,14.94781 -73.49062,6.85738 m -8.55321,2.85714 c 3.17687,16.47587 -4.03875,136.21093 8.72818,138.62031 39.79758,-18.38769 87.71093,-1.32133 116.51204,-12.59924 0.84904,-6.47692 1.952,-65.33173 1.75222,-93.50003 -0.69907,-55.03175 3.06341,-54.823643 2.70202,-74.863509 l -0.47136,-28.51451 C 307.54254,25.051637 223.9617,41.10301 207.05069,68.406191 m 16.28926,93.749409 -1.98277,-5.06826 c 9.45616,-8.54344 26.44992,-5.22814 45.83019,-8.45873 10.57198,-1.76229 26.62975,-9.45665 29.25293,-10.5245 15.17209,-6.23069 21.11565,-4.06053 21.39952,18.2536 -1.92399,6.47766 -85.38602,13.3446 -94.49987,5.79789 z"
       id="path4783"
       inkscape:connector-curvature="0"
       sodipodi:nodetypes="cccccccccsccscccccccccccsccaaaaaaaaaacaaaaaaaccccaaaaacccccccccccsccc" />
  </g>
</svg>
