<?xml version="1.0" encoding="UTF-8" standalone="no"?>
<!-- Created with Inkscape (http://www.inkscape.org/) -->

<svg
   xmlns:dc="http://purl.org/dc/elements/1.1/"
   xmlns:cc="http://creativecommons.org/ns#"
   xmlns:rdf="http://www.w3.org/1999/02/22-rdf-syntax-ns#"
   xmlns:svg="http://www.w3.org/2000/svg"
   xmlns="http://www.w3.org/2000/svg"
   xmlns:sodipodi="http://sodipodi.sourceforge.net/DTD/sodipodi-0.dtd"
   xmlns:inkscape="http://www.inkscape.org/namespaces/inkscape"
   width="130.37509mm"
   height="128.35286mm"
   viewBox="0 0 461.95899 454.79359"
   id="svg4805"
   version="1.1"
   inkscape:version="0.91 r13725"
   sodipodi:docname="files.svg">
  <defs
     id="defs4807" />
  <sodipodi:namedview
     id="base"
     pagecolor="#ffffff"
     bordercolor="#666666"
     borderopacity="1.0"
     inkscape:pageopacity="0.0"
     inkscape:pageshadow="2"
     inkscape:zoom="1.979899"
     inkscape:cx="126.07011"
     inkscape:cy="335.39024"
     inkscape:document-units="px"
     inkscape:current-layer="layer1"
     showgrid="false"
     fit-margin-top="0"
     fit-margin-left="0"
     fit-margin-right="0"
     fit-margin-bottom="0"
     inkscape:window-width="2560"
     inkscape:window-height="1159"
     inkscape:window-x="-15"
     inkscape:window-y="50"
     inkscape:window-maximized="0" />
  <metadata
     id="metadata4810">
    <rdf:RDF>
      <cc:Work
         rdf:about="">
        <dc:format>image/svg+xml</dc:format>
        <dc:type
           rdf:resource="http://purl.org/dc/dcmitype/StillImage" />
        <dc:title></dc:title>
      </cc:Work>
    </rdf:RDF>
  </metadata>
  <g
     inkscape:label="Layer 1"
     inkscape:groupmode="layer"
     id="layer1"
     transform="translate(-44.486154,-34.597703)">
    <path
       d="m 242.67858,488.87997 c -2.0625,-0.51555 -7.40625,-2.8276 -11.875,-5.1379 -12.58099,-6.50424 -21.08809,-9.75955 -23.71167,-9.07348 -1.3413,0.35077 -6.13656,-1.29503 -10.90378,-3.74232 -4.68025,-2.40264 -16.23895,-8.11996 -25.68599,-12.70518 -9.44705,-4.58521 -17.88455,-9.02597 -18.75,-9.86837 -0.86546,-0.84239 -4.21279,-2.52874 -7.4385,-3.74744 -3.22571,-1.2187 -7.72571,-3.53337 -10,-5.14371 -7.36728,-5.2165 -25.06908,-13.70309 -36.597939,-17.54576 C 72.446913,401.08007 76.335987,424.29933 74.257178,374.75574 76.337964,356.03663 73.279198,339.40539 72.68413,322.54081 70.651251,261.87738 69.389502,236.29939 67.660696,220.70654 59.275463,190.89924 66.400134,160.11051 55.696737,134.85409 52.715554,108.66783 53.455771,73.070662 55.5343,65.980218 c 0.638078,-2.462427 1.978378,-4.238953 3.405413,-4.513775 1.294267,-0.249253 4.481929,-1.796988 7.083697,-3.439412 2.992578,-1.889131 6.606726,-2.986225 9.837503,-2.986225 2.808859,0 6.335662,-0.67758 7.837339,-1.505733 1.5293,-0.843387 10.978136,-1.905329 21.480328,-2.414145 10.3125,-0.499628 23.41235,-1.816592 29.11077,-2.926587 5.69843,-1.109996 17.83565,-2.236822 26.9716,-2.50406 14.79989,-0.432913 28.92019,-2.302427 42.04263,-5.566395 6.42852,-1.598978 19.1625,-3.625677 31.3184,-4.984536 10.18676,-1.138735 17.60962,-0.473201 21.34666,1.913945 3.26834,2.087746 10.48331,4.199981 14.4102,4.218691 2.17265,0.01038 7.5164,1.705877 11.875,3.767834 4.35861,2.061958 8.54069,3.749458 9.2935,3.75 0.75282,5.43e-4 19.61159,6.739414 20.91964,8.184799 24.86146,3.913946 17.96417,18.513775 20.4457,41.422469 0.96738,7.435292 2.25002,18.005382 2.85032,23.489092 3.87556,27.13355 2.00183,54.5684 6.77765,74.92511 0.62715,2.49877 1.96088,3.30097 7.34724,4.41917 3.61955,0.75142 8.1831,2.1974 10.14122,3.21328 1.95813,1.01589 4.78969,1.84707 6.29235,1.84707 1.50267,0 3.26649,0.47317 3.91962,1.0515 1.50302,1.3309 14.53416,5.56791 27.159,8.83061 5.34682,1.3818 10.3548,2.90377 11.12883,3.38215 0.77404,0.47839 6.52437,2.13751 12.7785,3.68697 6.25414,1.54945 15.87117,4.02638 21.37117,5.50429 5.5,1.4779 13.32811,3.53166 17.39581,4.56393 16.53988,7.71133 31.03144,11.65554 32.0787,28.91805 0.0547,2.57812 0.63542,13.125 1.29044,23.4375 -2.34564,39.50254 9.49218,71.97274 9.93992,105.78691 2.24071,70.22496 7.07871,63.86833 -3.55821,74.30466 -9.16929,4.29559 -57.84361,6.35542 -66.52166,7.24659 -3.78125,0.36012 -9.125,0.97302 -11.875,1.36199 -2.75,0.38896 -17.375,1.54471 -32.5,2.56833 -45.53007,3.08137 -75.03387,6.1009 -77.34678,7.91595 -3.087,2.42252 -61.63462,5.8466 -68.90322,4.02973 z m 244.94745,-45.14973 c -2.34153,-2.58973 -2.45074,-4.87862 -2.52354,-52.88566 -1.6427,-46.29281 0.99423,-114.74575 -21.98973,-122.12475 -4.00225,0.49585 -26.02793,3.97916 -29.80918,5.27144 -3.78125,1.29227 -13.07513,2.85385 -20.65307,3.47017 -7.57792,0.61632 -17.53413,2.12143 -22.1249,3.3447 -27.91503,1.86577 -57.51161,1.94195 -86.04061,9.97813 -3.74354,1.08827 -10.74392,2.53807 -15.55642,3.22176 -11.96885,1.70036 -36.21088,5.73611 -43.45538,7.23433 -11.62087,2.40328 -12.55754,4.12551 -10.80005,19.85798 1.81368,16.23562 4.84064,63.47255 5.4992,85.81747 0.75253,25.53247 1.68668,35.20418 3.80525,39.39745 0.8746,1.73108 1.29336,4.7002 0.93058,6.598 -0.36279,1.89781 0.0258,5.8985 0.86345,8.89042 l 1.52306,5.43986 8.31695,0.77748 c 4.57431,0.42762 17.31694,0.73604 28.31694,0.68536 55.68723,-5.84811 184.07685,-1.93685 203.69745,-24.97414 z m -190.69164,0.60535 c -24.71731,-14.39686 -13.5375,-52.44383 -19.23596,-78.91136 -1.02605,-4.76567 -1.94623,-9.55728 -2.69047,-14.375 -1.50255,-9.72659 -2.34638,-19.54369 -3.57893,-29.30817 -0.22407,-1.77512 -1.67791,-3.82835 -0.69378,-5.32259 3.34812,-5.08359 3.07046,-2.8272 17.56833,-4.98284 3.78125,-0.56222 13.34375,-2.47029 21.25,-4.24015 7.90625,-1.76986 18.03125,-3.59002 22.5,-4.04481 4.46875,-0.45478 12.625,-1.62288 18.125,-2.59578 15.12047,-2.67465 16.75388,-2.82958 44.96937,-4.26545 43.01711,-2.1891 55.39329,1.2611 52.77313,14.71197 -0.3658,1.87791 -0.15132,5.6644 0.47663,8.4144 3.03865,13.30712 6.07137,30.91723 6.76588,39.28755 0.42384,5.10815 0.98221,9.62991 1.24082,10.04835 0.25862,0.41845 0.77429,4.3953 1.14595,8.83746 0.37165,4.44215 1.247,11.45164 1.94522,15.57664 2.10665,12.44603 3.5897,28.06478 2.9112,30.65937 -8.26662,8.8474 -58.34301,14.99986 -67.15085,15.5461 -14.24593,1.518 -27.60789,6.70757 -41.78637,7.11524 -15.79591,2.32842 -46.4574,4.58732 -56.53517,-2.15093 z m 73.86919,-15.76403 c 3.09375,-1.11389 10.125,-2.69153 15.625,-3.50587 35.67325,-5.28178 57.34552,-9.95968 60.42935,-13.04352 1.6042,-1.6042 1.66868,-2.87523 0.42031,-8.28353 -0.81106,-3.51371 -1.47395,-9.01752 -1.47306,-12.2307 0.002,-8.71411 -2.4833,-26.73852 -4.08095,-29.59213 -0.76982,-1.375 -1.85204,-5.3125 -2.40493,-8.75 -0.5529,-3.4375 -1.56594,-9.625 -2.2512,-13.75 -0.68525,-4.125 -1.82212,-11.91415 -2.52639,-17.30923 -1.9704,-15.09457 -1.23376,-14.5229 -19.09461,-14.81829 -8.39769,-0.13888 -16.95602,-0.1075 -19.01852,0.0697 -2.0625,0.17725 -6.39577,0.29757 -9.62949,0.26735 -3.23371,-0.0302 -12.79621,1.38304 -21.25,3.14054 -15.51856,3.22624 -22.16283,4.3144 -40.37051,6.61164 -16.28143,2.05421 -31.90203,5.03747 -35.44255,6.76892 -5.65039,25.2438 7.51699,64.04204 12.59498,95.01355 0.76724,4.67185 2.00308,8.8906 2.74628,9.375 2.13782,1.39339 15.85622,2.13358 38.85129,2.09625 16.37365,-0.0266 22.5408,-0.49923 26.875,-2.05976 z M 226.3297,441.64973 c -0.37751,-8.10366 -1.21282,-17.79036 -1.85625,-21.526 -0.64344,-3.73564 -1.18881,-12.73564 -1.21197,-20 -0.0715,-22.42215 -1.90005,-38.493 -7.61869,-66.95792 -1.3812,-6.875 -2.65686,-13.34375 -2.83481,-14.375 -0.86533,-5.01458 -4.57575,-15.24992 -6.0699,-16.74408 -22.52969,-9.05886 -58.75934,-13.96915 -75.9345,-21.80227 -2.40625,-1.10019 -5.96504,-3.2836 -7.90841,-4.852 -1.94337,-1.56842 -4.41241,-2.85165 -5.48675,-2.85165 -1.07434,0 -4.57765,-1.61475 -7.78514,-3.58834 -8.35229,-5.13921 -10.91457,-5.75431 -12.400977,-2.97694 -1.501875,2.80629 -1.556533,42.29008 -0.06397,46.21579 0.586438,1.54245 1.302305,20.11146 1.590817,41.26447 0.311382,22.82985 1.062781,39.81998 1.84892,41.80639 26.22605,3.63787 127.56537,86.35194 125.73163,46.38755 z m 0.86919,-159.45117 c 0,0 5.22717,-3.18728 14.68364,-3.95424 5.25032,-0.41726 13.7648,-3.84169 18.92105,-4.52326 5.15625,-0.68158 22.875,-2.63384 39.375,-4.33834 16.5,-1.70451 33.9375,-3.6302 38.75,-4.27931 4.8125,-0.64912 14.9375,-1.51957 22.5,-1.93435 15.87648,-0.87077 31.66766,-2.7225 38.50893,-4.5157 4.53503,-1.18869 4.74088,-1.46428 4.375,-5.85708 -0.48713,-5.84872 -1.1898,-5.98689 -21.00893,-4.13066 -8.59375,0.80487 -22.09375,2.03805 -30,2.74041 -33.86655,3.00854 -65.69288,6.91791 -80.625,9.90351 -3.4375,0.68732 -10.1875,1.78302 -15,2.43488 -15.78465,2.13806 -32.87646,8.09362 -36.9438,9.56608 m -16.1812,-1.35072 c 12.83544,-13.05367 40.69232,-11.31665 59.375,-13.72382 19.54062,-2.42365 44.57525,-5.89785 50,-6.93879 3.4375,-0.6596 12.07815,-2.37653 19.20145,-3.81538 7.1233,-1.43885 14.71705,-2.65122 16.875,-2.69416 2.15795,-0.0429 4.48605,-0.4254 5.17355,-0.84994 0.6875,-0.42453 5.1875,-1.33438 10,-2.02188 4.8125,-0.6875 8.75,-1.72337 8.75,-2.30192 0,-0.57856 -3.35708,-2.41773 -7.46018,-4.08705 -7.33299,-2.98338 -7.63136,-3.0033 -17.5,-1.16822 -5.5219,1.02679 -16.78982,2.46494 -25.03982,3.19587 -8.25,0.73094 -15.66449,1.5569 -16.47663,1.83547 -0.81215,0.27856 -7.2809,1.13067 -14.375,1.89358 -7.09411,0.7629 -19.64837,2.72427 -27.89837,4.35857 -14.43237,2.85901 -45.86492,7.53147 -72.90685,10.83763 -14.85004,1.81558 -16.17559,2.86324 -13.97285,11.0436 1.2608,4.68228 1.75532,5.08799 8.48427,6.96064 3.92999,1.0937 7.70793,2.1845 8.39543,2.424 0.6875,0.2395 3.07812,0.47986 5.3125,0.53414 3.99147,0.097 4.0625,0.001 4.0625,-5.48234 m -33.80487,-4.10647 c -4.0472,-25.21414 37.21857,-14.80729 60.05487,-20.2504 2.40625,-0.61197 7.46875,-1.47133 11.25,-1.90968 9.13832,-1.0594 26.89851,-4.11744 33.125,-5.70364 2.75,-0.70056 7.8125,-1.48807 11.25,-1.75003 3.4375,-0.26195 12.71875,-1.35159 20.625,-2.42143 32.09537,-4.34297 43.01517,-5.77732 43.98302,-5.77732 0.55934,0 1.01698,-0.8158 1.01698,-1.81289 0,-2.91151 -3.66417,-4.19066 -8.73842,-3.05055 -2.56137,0.57551 -15.56495,1.64852 -28.89682,2.38449 -13.33188,0.73596 -28.73976,2.18347 -34.23976,3.2167 -5.5,1.03322 -12.25,2.092 -15,2.35282 -11.1133,1.05406 -19.61667,2.07583 -37.5,4.50599 -31.96473,4.34367 -33.51894,4.58819 -42.28242,6.65205 -4.69282,1.10519 -11.37136,2.13296 -14.8412,2.28394 -5.17786,0.22528 -6.53778,0.77708 -7.58625,3.0782 -1.43886,3.15798 0.57669,15.79331 2.98155,18.69098 1.99275,2.40113 4.8636,2.10842 4.79845,-0.48923 z m -15.68462,-2.62725 c -6.06262,-27.20428 3.52079,-22.78696 35.17407,-26.44132 7.42373,-0.75513 17.09069,-2.12613 21.48215,-3.04666 4.39148,-0.92054 8.9772,-1.4141 10.1905,-1.09681 1.21332,0.31729 8.35118,-0.54385 15.86192,-1.91365 7.51075,-1.3698 17.0309,-2.86379 21.1559,-3.31996 4.125,-0.45618 11.4375,-1.65484 16.25,-2.6637 8.86456,-1.8583 15.736,-2.40455 45,-3.57733 8.9375,-0.35817 19.46511,-1.22927 23.3947,-1.93577 6.28467,-1.12992 7.7457,-0.97793 12.1377,1.26271 2.74615,1.40097 6.35278,2.54724 8.01475,2.54724 1.66195,0 3.72198,0.84375 4.57785,1.875 0.91447,1.10187 3.68351,1.88632 6.71555,1.90245 5.25493,0.028 15.78445,3.97766 15.78445,5.92087 0,0.5888 2.39062,2.08356 5.3125,3.3217 22.62718,7.941 13.15013,15.63392 15.68773,17.45061 1.10665,0.68395 33.47693,-2.29368 39.98609,-3.67818 5.22033,-1.11037 4.5503,-3.26144 -1.5489,-4.9727 -2.60546,-0.73102 -5.37289,-2.16435 -6.14981,-3.1852 -0.77694,-1.02084 -4.78761,-2.8605 -8.91261,-4.08814 -4.125,-1.22763 -10.03125,-3.02618 -13.125,-3.99678 -3.09375,-0.9706 -12.09375,-3.521 -20,-5.66756 -7.90625,-2.14657 -15.21875,-4.31856 -16.25,-4.82665 -1.03125,-0.50809 -4.96875,-1.61995 -8.75,-2.47082 -3.78125,-0.85087 -8.46747,-2.34298 -10.4138,-3.31582 -1.94634,-0.97283 -4.53444,-1.76878 -5.75133,-1.76878 -1.21689,0 -4.87886,-1.41772 -8.13772,-3.15047 -5.88037,-3.12661 -6.16325,-3.15047 -37.37368,-3.1524 -29.29275,-0.001 -35.24631,0.42453 -55.19847,3.95285 -4.125,0.72947 -9.46875,1.48135 -11.875,1.67088 -2.40625,0.18952 -17.3125,2.08896 -33.125,4.22096 -15.8125,2.13201 -33.8125,4.48666 -40,5.23258 -14.82335,1.78695 -39.06972,6.89757 -42.9613,8.80378 -25.1637,8.81239 -23.05685,5.10804 -25.1637,8.81239 0,1.72015 8.57766,6.67274 21.96947,12.6848 20.72026,9.30206 24.78305,10.64533 26.04104,8.60988 z M 99.751001,208.79081 c -4.972928,-51.16462 -7.681711,-73.82238 -8.620389,-91.875 -0.858749,-16.2444 1.156384,-25.171177 0.266859,-28.125004 -0.581804,-1.931981 -14.785394,-7.5 -19.131926,-7.5 -3.414837,0 -3.907109,2.163428 -2.586954,11.369079 0.631457,4.403256 1.731987,13.886565 2.445621,21.074025 0.713634,7.18745 1.803191,13.6774 2.421238,14.4221 3.140296,7.91706 -0.832783,16.5249 2.667777,24.55363 0.563499,1.12412 1.301628,5.34287 1.640286,9.375 0.338658,4.03214 1.212983,11.53479 1.942944,16.67255 0.729963,5.13778 1.549925,16.11948 1.822141,24.4038 0.441415,13.4335 1.040108,18.9223 2.625153,24.06732 17.219039,8.07951 14.056692,-9.10195 14.50725,-18.4375 z m 30.799389,12.96852 c 0.50471,0.31193 4.00252,-0.23699 7.77292,-1.21982 3.7704,-0.98283 11.07402,-2.33123 16.23027,-2.99643 5.15625,-0.66521 13.59375,-2.05909 18.75,-3.09752 17.68551,-3.56173 23.1398,-4.52422 31.875,-5.6248 4.8125,-0.60634 12.40625,-1.92992 16.875,-2.94127 4.46875,-1.01135 12.0625,-2.50918 16.875,-3.32852 4.8125,-0.81934 12.6875,-2.29074 17.5,-3.26979 4.8125,-0.97905 12.40625,-2.43806 16.875,-3.24226 4.46875,-0.8042 8.82812,-2.16134 9.6875,-3.01586 1.90488,-1.89414 2.17392,-27.74183 0.35477,-34.08484 -0.66425,-2.3161 -1.52329,-12.15614 -1.90899,-21.86675 -0.63862,-16.07863 -2.03003,-27.90567 -5.75361,-48.905664 -2.29656,-12.952003 -2.44261,-13.12049 -11.41576,-13.169678 -4.3114,-0.02364 -11.04539,-0.181155 -14.96443,-0.350047 -3.91902,-0.168891 -14.04402,0.393627 -22.5,1.250039 -8.45596,0.856413 -19.99031,1.548459 -25.63188,1.537883 -5.64157,-0.01063 -12.39157,0.530065 -15,1.201428 -21.45307,2.655247 -60.11465,5.171358 -76.15687,19.869996 -3.44394,4.348323 -4.28343,14.668393 -4.12626,22.396253 0.0952,4.68276 0.70567,11.01894 1.35651,14.08038 0.65084,3.06143 1.43743,13.74893 1.74799,23.75 1.48273,47.74896 2.79805,63.35113 5.4805,65.00898 0.88201,0.54512 4.65376,0.19462 8.38167,-0.77887 3.7279,-0.97349 7.19096,-1.51478 7.69567,-1.20284 z m 194.0349,-27.96852 c -1.94097,-20.04778 -3.8999,-45.61786 -4.32479,-62.5 -0.39095,-16.15625 -1.25902,-31.625004 -1.92905,-34.375004 -0.67002,-2.75 -1.23165,-7.433893 -1.24805,-10.408653 -0.0238,-4.298893 -0.78589,-6.164719 -3.71466,-9.093498 l -3.68485,-3.684842 -14.12765,0.60924 c -7.77021,0.335081 -14.54954,0.63028 -15.06516,0.655996 -1.27909,0.06379 -1.18963,5.512216 0.11475,6.984257 2.02735,2.288055 4.2663,16.294415 5.28163,33.040624 0.56347,9.29328 1.57002,21.95938 2.23678,28.14688 0.66677,6.1875 1.55342,16.875 1.97032,23.75 1.09035,17.98032 2.06727,24.87372 3.67285,25.91683 16.75657,0.16308 23.52007,0.21651 30.81788,0.95817 z M 72.323471,71.46381 c -48.215647,653.93226 -24.107824,326.96613 0,0 z m 41.533399,7.151728 c 5.15625,-0.471512 56.89163,-7.610895 60.64377,-7.840199 40.98263,-4.318258 64.84512,-0.302475 100.05294,-4.94173 39.47855,-1.632393 1.85777,-9.155303 -11.875,-15.625017 -4.51262,-2.011186 -34.50137,-2.062521 -44.63658,-0.07641 -3.63739,0.712789 -10.96524,1.541792 -16.28411,1.842228 L 83.237097,69.176712 c -7.498776,8.788016 15.441469,10.656443 30.619773,9.438826 z"
       id="path5418"
       inkscape:connector-curvature="0"
       sodipodi:nodetypes="sscsssssccccccsssssssssscssccccssssssssccccccsssscccssccssssssscscccaaaassssssssssscccccssscssssscsssccsscccssssccssssssccccsssssssssscccsscsssssscssssssscccssssssssssssssscccssssssssssssccsscsssssssscssssccssccssssccsssccccsssssssssssssssccssssscccscscsscsssccccccccscccc" />
  </g>
</svg>
