<?xml version="1.0" encoding="UTF-8" standalone="no"?>
<!-- Created with Inkscape (http://www.inkscape.org/) -->

<svg
   xmlns:dc="http://purl.org/dc/elements/1.1/"
   xmlns:cc="http://creativecommons.org/ns#"
   xmlns:rdf="http://www.w3.org/1999/02/22-rdf-syntax-ns#"
   xmlns:svg="http://www.w3.org/2000/svg"
   xmlns="http://www.w3.org/2000/svg"
   xmlns:sodipodi="http://sodipodi.sourceforge.net/DTD/sodipodi-0.dtd"
   xmlns:inkscape="http://www.inkscape.org/namespaces/inkscape"
   width="48.822529mm"
   height="24.119743mm"
   viewBox="0 0 172.99321 85.463657"
   id="svg2"
   version="1.1"
   inkscape:version="0.91 r13725"
   sodipodi:docname="unicorn2.svg">
  <defs
     id="defs4" />
  <sodipodi:namedview
     id="base"
     pagecolor="#ffffff"
     bordercolor="#666666"
     borderopacity="1.0"
     inkscape:pageopacity="0.0"
     inkscape:pageshadow="2"
     inkscape:zoom="0.49497475"
     inkscape:cx="-537.66148"
     inkscape:cy="-10.245345"
     inkscape:document-units="px"
     inkscape:current-layer="layer1"
     showgrid="false"
     inkscape:window-width="1436"
     inkscape:window-height="856"
     inkscape:window-x="512"
     inkscape:window-y="139"
     inkscape:window-maximized="0"
     fit-margin-top="0"
     fit-margin-left="0"
     fit-margin-right="0"
     fit-margin-bottom="0" />
  <metadata
     id="metadata7">
    <rdf:RDF>
      <cc:Work
         rdf:about="">
        <dc:format>image/svg+xml</dc:format>
        <dc:type
           rdf:resource="http://purl.org/dc/dcmitype/StillImage" />
        <dc:title></dc:title>
      </cc:Work>
    </rdf:RDF>
  </metadata>
  <g
     inkscape:label="Layer 1"
     inkscape:groupmode="layer"
     id="layer1"
     transform="translate(-251.38177,-414.05858)">
    <path
       style="fill:#000000"
       d="m 382.99501,496.70948 c -1.64726,-1.63579 -6.6359,-6.69829 -11.08586,-11.25 -7.35685,-7.52509 -8.55319,-8.27585 -13.1875,-8.27585 -2.80316,0 -5.65779,0.56112 -6.34361,1.24695 -3.52738,3.52737 -52.62764,2.39866 -60.96815,-1.40154 -2.36974,-1.07973 -5.33868,0.008 -18.72966,6.86461 l -15.91352,8.14774 -1.97346,-4.61638 c -1.08541,-2.53901 -2.45676,-5.57624 -3.04744,-6.74941 -0.78525,-1.5596 -0.33342,-2.65173 1.68074,-4.0625 1.51509,-1.06121 3.33267,-1.93188 4.03907,-1.93482 0.7064,-0.003 3.81562,-1.68804 6.90937,-3.74465 3.09375,-2.05661 6.54468,-3.74171 7.66874,-3.74465 2.42438,-0.006 6.08126,-5.16439 6.08126,-8.57763 0,-3.00412 -2.32011,-3.92772 -9.86653,-3.92772 -6.41267,0 -11.38347,-3.20113 -11.38347,-7.3308 0,-3.2588 5.91517,-8.50403 7.64238,-6.77682 0.97904,0.97904 0.62473,1.59241 -1.26655,2.19268 -3.07504,0.97598 -3.4046,3.46251 -0.75083,5.66494 1.38774,1.15172 2.31094,1.19431 3.55251,0.1639 2.39739,-1.98965 3.6772,-0.1277 1.53742,2.23673 -1.61074,1.77985 -1.25449,1.93588 3.54797,1.55393 6.90215,-0.54895 9.77005,2.05441 9.24079,8.38841 -0.36339,4.34893 -0.79533,4.73017 -10.69119,9.43636 -5.67188,2.69738 -10.3125,5.65051 -10.3125,6.5625 0,2.5324 1.43969,2.08048 10.99383,-3.45096 4.85359,-2.81002 9.84991,-4.89567 11.10294,-4.63478 1.54695,0.32209 -0.731,2.13432 -7.09677,5.64585 -11.24072,6.20068 -13.12325,7.72481 -11.52066,9.3274 0.74919,0.74919 2.74661,0.23601 5.41627,-1.39155 2.32617,-1.41815 5.0429,-2.58055 6.0372,-2.58312 0.9943,-0.003 3.90139,-1.45552 6.4602,-3.22878 l 4.65238,-3.2241 13.53981,2.76041 c 11.71022,2.38741 15.82005,2.65074 30.4148,1.9488 9.28125,-0.44639 20.24577,-1.62494 24.36561,-2.61902 l 7.4906,-1.8074 5.0094,4.63298 c 2.75516,2.54814 7.90705,7.377 11.44865,10.7308 6.0203,5.70108 6.5248,5.93799 7.75399,3.64124 1.1298,-2.11105 0.32347,-3.38118 -5.73264,-9.03009 -3.87606,-3.61542 -8.34972,-7.16689 -9.94149,-7.89215 -1.59177,-0.72526 -2.89412,-1.75068 -2.89412,-2.27872 0,-0.52804 -0.91071,-1.87078 -2.02381,-2.98388 -7.73387,-7.73387 9.84711,4.40334 18.58445,12.82996 3.59271,3.46495 5.0287,4.17594 6.15644,3.0482 1.12775,-1.12774 -1.41596,-4.46655 -10.90549,-14.31436 -6.80697,-7.06396 -13.51487,-13.53479 -14.90645,-14.37963 -6.18109,-3.75259 -12.20009,-4.38308 -26.08255,-2.73216 -11.33143,1.34755 -13.72284,2.00742 -14.45581,3.98884 -0.79372,2.14563 -1.03684,2.1831 -2.52558,0.38928 -2.05661,-2.47806 -6.3412,-2.60216 -6.3412,-0.18366 0,0.99067 0.5625,2.14887 1.25,2.57377 0.6875,0.4249 1.24376,1.72372 1.23614,2.88627 -0.01,1.4842 -0.96924,0.90149 -3.22167,-1.95652 -1.76429,-2.23864 -4.42993,-4.69812 -5.92364,-5.46551 -2.23814,-1.14985 -2.441,-1.10451 -1.15333,0.25775 3.5815,3.78896 0.69352,6.7126 -2.99107,3.02801 -2.62053,-2.62053 -4.08285,-2.33567 -3.30376,0.64358 0.46605,1.78216 0.15771,2.32576 -1.05452,1.85915 -1.92954,-0.74273 -8.93966,-13.08617 -8.52335,-15.00794 0.14831,-0.68463 -0.15716,-3.07292 -0.67882,-5.30729 -0.95561,-4.09306 -3.27597,-5.12404 -6.67829,-2.96731 -1.34242,0.85096 -1.28153,1.20494 0.3125,1.81662 1.0889,0.41785 1.97981,1.62113 1.97981,2.67396 0,2.46584 -3.60486,2.49693 -4.54797,0.0392 -0.39573,-1.03125 -2.2062,-1.89371 -4.02327,-1.91659 l -3.30376,-0.0416 2.94736,-2.45549 c 1.63768,-1.36437 2.58793,-3.15109 2.13847,-4.02091 -0.95828,-1.85455 -3.09702,-5.37556 -5.88619,-9.69043 -1.11101,-1.71875 -2.36471,-5.09375 -2.78599,-7.5 l -0.76596,-4.375 6.81492,7.5 c 3.74821,4.125 6.83686,7.92187 6.86366,8.4375 0.10752,2.06853 2.69392,0.7628 3.65953,-1.8475 0.99991,-2.70302 1.09072,-2.66804 3.08472,1.18792 1.12996,2.18511 2.05448,4.85854 2.05448,5.94094 0,1.08241 1.37375,2.49032 3.05278,3.12868 1.67902,0.63836 7.7259,4.12609 13.4375,7.7505 10.02291,6.36024 10.68957,6.58828 19.13472,6.5452 4.8125,-0.0245 12.125,-0.29182 16.25,-0.59394 4.125,-0.30211 10.40949,-0.11383 13.96552,0.41839 5.85381,0.87613 6.79993,0.671 10,-2.16809 1.94397,-1.72468 4.29063,-3.77872 5.21481,-4.56453 3.65937,-3.11153 11.57407,-3.80205 18.52375,-1.61611 3.66901,1.15405 6.67092,2.56984 6.67092,3.14621 0,0.57638 -1.44286,0.49937 -3.20638,-0.17111 -4.12116,-1.56686 -5.54362,-1.53999 -5.54362,0.10471 0,0.72808 0.5625,0.97613 1.25,0.55123 0.6875,-0.4249 1.25,0.1044 1.25,1.17623 0,1.07182 0.89759,1.94877 1.99464,1.94877 3.08432,0 8.51775,3.63777 9.94113,6.65577 1.19262,2.52866 0.97262,2.71223 -3.13913,2.61937 -2.4319,-0.0549 -7.51539,-1.08136 -11.29664,-2.28097 -3.78125,-1.1996 -9.21715,-2.4536 -12.07978,-2.78666 -4.43764,-0.51632 -5.32456,-0.22812 -6.01756,1.95534 -0.47272,1.48943 -0.0258,3.68465 1.06844,5.24675 4.16152,5.94142 17.80089,18.93343 22.27084,21.21383 2.61694,1.33506 4.75806,2.78473 4.75806,3.22149 0,1.15118 -6.4358,9.51324 -8.69914,11.30283 -2.81328,2.22441 -4.33253,1.95306 -7.68084,-1.3719 z m 15.12998,-41.89211 c 0,-1.26711 -3.80724,-2.99317 -4.67907,-2.12133 -0.31421,0.31419 -0.20049,1.17119 0.25267,1.90443 0.99726,1.6136 4.4264,1.78163 4.4264,0.2169 z m -13.21906,-1.23155 c 0.71098,-1.1504 -4.98669,-2.65219 -10.06219,-2.65219 -5.14557,0 -3.21584,2.334 2.34375,2.83474 2.92188,0.26317 5.70117,0.57677 6.17622,0.69688 0.47505,0.12011 1.16905,-0.27563 1.54222,-0.87943 z m 20.71906,13.97887 c -1.71875,-0.86699 -4.06204,-1.28452 -5.2073,-0.92785 -1.14527,0.35666 -2.41384,0.11204 -2.81905,-0.5436 -0.40521,-0.65564 -2.9838,-1.57172 -5.7302,-2.03572 -2.7464,-0.464 -4.99345,-1.35669 -4.99345,-1.98376 0,-1.54201 4.18987,-1.45025 5.76641,0.12628 0.8552,0.85521 2.59254,0.80411 5.35064,-0.15737 2.80269,-0.97702 4.93515,-1.03101 6.79609,-0.17204 1.49152,0.68844 4.24765,1.86715 6.12472,2.61933 2.00663,0.80411 3.15274,2.04549 2.78155,3.01279 -0.79586,2.07397 -4.03147,2.09881 -8.06941,0.062 z m 9.2253,-3.03731 c -1.89366,-1.97656 -4.32216,-3.63816 -5.39666,-3.69243 -1.0745,-0.0543 -1.35087,-0.34896 -0.61414,-0.65484 1.71886,-0.71366 15.5355,5.362 15.5355,6.83151 0,2.5236 -6.30151,0.88004 -9.5247,-2.48424 z m -97.21656,-3.07098 c -1.17341,-3.05785 -0.919,-3.46189 1.11626,-1.77277 2.07797,1.72456 2.48778,3.75 0.75874,3.75 -0.61395,0 -1.4577,-0.88976 -1.875,-1.97723 z m 95.49126,-3.64777 c -1.71875,-0.98253 -2.52939,-1.80634 -1.80141,-1.83071 0.72797,-0.0244 2.41547,0.78157 3.75,1.79096 3.08622,2.3343 2.10047,2.35441 -1.94859,0.0398 z"
       id="path3419"
       inkscape:connector-curvature="0" />
  </g>
</svg>
